<svg width="353" height="299" viewBox="0 0 353 299" fill="none" xmlns="http://www.w3.org/2000/svg">
<path opacity="0.38" fill-rule="evenodd" clip-rule="evenodd" d="M166.779 2.40823C205.417 -6.81296 242.804 12.0518 275.559 31.9243C307.371 51.2248 334.74 76.4 345.32 110.73C356.648 147.488 357.061 189.198 334.105 221.901C311.433 254.201 268.91 263.793 229.786 275.322C186.542 288.065 139.963 309.989 100.68 290.687C60.2014 270.797 42.2466 224.67 38.8243 181.49C35.7965 143.288 60.6672 110.063 83.7981 77.6891C106.041 46.5592 128.328 11.5848 166.779 2.40823Z" fill="#F5F6FF"/>
<path d="M337.533 243.646H15.4668C15.343 243.646 15.2242 243.594 15.1367 243.5C15.0492 243.406 15 243.279 15 243.146C15 243.014 15.0492 242.887 15.1367 242.793C15.2242 242.699 15.343 242.646 15.4668 242.646H337.533C337.657 242.646 337.776 242.699 337.863 242.793C337.951 242.887 338 243.014 338 243.146C338 243.279 337.951 243.406 337.863 243.5C337.776 243.594 337.657 243.646 337.533 243.646Z" fill="#CCCCCC"/>
<path d="M305.959 162.646H116.041C115.234 162.646 114.461 162.963 113.891 163.528C113.32 164.092 113 164.857 113 165.655C113 166.453 113.32 167.218 113.891 167.782C114.461 168.347 115.234 168.664 116.041 168.664H121.42V240.638C121.42 241.436 121.74 242.201 122.311 242.765C122.881 243.33 123.654 243.646 124.461 243.646C125.267 243.646 126.04 243.33 126.611 242.765C127.181 242.201 127.501 241.436 127.501 240.638L127.547 168.664H294.031V240.638C294.031 241.436 294.351 242.201 294.922 242.765C295.492 243.33 296.265 243.646 297.072 243.646C297.878 243.646 298.651 243.33 299.222 242.765C299.792 242.201 300.112 241.436 300.112 240.638V170.25L300.997 168.664H305.959C306.766 168.664 307.539 168.347 308.109 167.782C308.68 167.218 309 166.453 309 165.655C309 164.857 308.68 164.092 308.109 163.528C307.539 162.963 306.766 162.646 305.959 162.646Z" fill="#CCCCCC"/>
<path d="M220.858 163.646H164.142C163.044 163.645 161.991 163.203 161.215 162.417C160.438 161.631 160.001 160.565 160 159.453V127.84C160.001 126.728 160.438 125.662 161.215 124.876C161.991 124.09 163.044 123.648 164.142 123.646H220.858C221.956 123.648 223.009 124.09 223.785 124.876C224.562 125.662 224.999 126.728 225 127.84V159.453C224.999 160.565 224.562 161.631 223.785 162.417C223.009 163.203 221.956 163.645 220.858 163.646Z" fill="#3F3D56"/>
<path d="M221.039 126.646H163.961C163.706 126.647 163.462 126.75 163.282 126.934C163.102 127.118 163.001 127.366 163 127.626V159.667C163.001 159.927 163.102 160.175 163.282 160.359C163.462 160.543 163.706 160.646 163.961 160.646H221.039C221.294 160.646 221.538 160.543 221.718 160.359C221.898 160.175 221.999 159.927 222 159.667V127.626C221.999 127.366 221.898 127.118 221.718 126.934C221.538 126.75 221.294 126.647 221.039 126.646Z" fill="white"/>
<path d="M197 149.106C197 149.106 190.49 147.417 186.91 150.514C183.33 153.61 191.467 160.646 191.467 160.646L197 149.106Z" fill="#2F2E41"/>
<path d="M192.5 146.646C196.09 146.646 199 143.736 199 140.146C199 136.557 196.09 133.646 192.5 133.646C188.91 133.646 186 136.557 186 140.146C186 143.736 188.91 146.646 192.5 146.646Z" fill="#A0616A"/>
<path d="M187.692 130.887C188.132 130.165 188.769 129.574 189.534 129.18C190.3 128.786 191.162 128.604 192.027 128.655C192.932 128.765 193.815 129.004 194.648 129.365L198.96 130.993C200.076 131.414 201.299 131.93 201.783 132.99C202.232 133.974 201.897 135.111 201.558 136.135L199.944 141.006C199.765 139.903 199.459 138.824 199.03 137.789C198.594 136.746 197.806 135.877 196.795 135.323C195.674 134.766 194.354 134.778 193.096 134.836C191.315 134.919 189.379 135.139 188.113 136.354C187.442 137.045 186.986 137.906 186.8 138.837C186.617 139.763 186.524 140.704 186.525 141.646C185.794 140.432 185.179 139.155 184.686 137.833C184.281 136.848 184.05 135.805 184.003 134.746C183.961 133.678 184.327 132.632 185.032 131.809C185.389 131.407 185.856 131.11 186.379 130.95C186.902 130.791 187.46 130.776 187.992 130.908L187.692 130.887Z" fill="#2F2E41"/>
<path d="M208.453 155.099C208.391 154.879 208.266 154.683 208.093 154.534C207.92 154.385 207.706 154.291 207.479 154.262C207.464 154.252 207.448 154.242 207.432 154.234L197.682 148.804C197.403 148.649 197.076 148.606 196.767 148.685C196.457 148.764 196.191 148.959 196.022 149.228L193.356 153.519L189.339 149.527L189.276 149.464C189.069 149.259 188.797 149.133 188.507 149.108C188.216 149.083 187.926 149.16 187.688 149.326L179.674 154.902C179.66 154.902 179.646 154.907 179.632 154.907C179.249 154.971 178.898 155.162 178.639 155.45C178.38 155.738 178.228 156.106 178.207 156.491L178 160.646H210L208.453 155.099Z" fill="#042BFD"/>
<path d="M226.064 160.218H219.931C219.931 160.066 219.863 159.921 219.742 159.814C219.621 159.707 219.457 159.646 219.286 159.646H217.35C217.178 159.646 217.014 159.707 216.893 159.814C216.772 159.921 216.704 160.066 216.704 160.218H214.768C214.768 160.066 214.7 159.921 214.579 159.814C214.458 159.707 214.293 159.646 214.122 159.646H212.186C212.015 159.646 211.85 159.707 211.729 159.814C211.608 159.921 211.54 160.066 211.54 160.218H209.604C209.604 160.066 209.536 159.921 209.415 159.814C209.294 159.707 209.129 159.646 208.958 159.646H207.022C206.851 159.646 206.686 159.707 206.565 159.814C206.444 159.921 206.376 160.066 206.376 160.218H204.44C204.44 160.066 204.372 159.921 204.251 159.814C204.13 159.707 203.966 159.646 203.794 159.646H201.858C201.687 159.646 201.523 159.707 201.402 159.814C201.281 159.921 201.213 160.066 201.213 160.218H199.276C199.276 160.066 199.208 159.921 199.087 159.814C198.966 159.707 198.802 159.646 198.631 159.646H196.694C196.523 159.646 196.359 159.707 196.238 159.814C196.117 159.921 196.049 160.066 196.049 160.218H194.112C194.112 160.066 194.044 159.921 193.923 159.814C193.802 159.707 193.638 159.646 193.467 159.646H191.53C191.359 159.646 191.195 159.707 191.074 159.814C190.953 159.921 190.885 160.066 190.885 160.218H188.948C188.948 160.066 188.88 159.921 188.759 159.814C188.638 159.707 188.474 159.646 188.303 159.646H186.366C186.195 159.646 186.031 159.707 185.91 159.814C185.789 159.921 185.721 160.066 185.721 160.218H183.785C183.785 160.066 183.716 159.921 183.595 159.814C183.474 159.707 183.31 159.646 183.139 159.646H181.203C181.031 159.646 180.867 159.707 180.746 159.814C180.625 159.921 180.557 160.066 180.557 160.218H178.621C178.621 160.066 178.553 159.921 178.432 159.814C178.311 159.707 178.146 159.646 177.975 159.646H176.039C175.868 159.646 175.703 159.707 175.582 159.814C175.461 159.921 175.393 160.066 175.393 160.218H173.457C173.457 160.066 173.389 159.921 173.268 159.814C173.147 159.707 172.983 159.646 172.811 159.646H170.875C170.704 159.646 170.539 159.707 170.418 159.814C170.297 159.921 170.229 160.066 170.229 160.218H168.293C168.293 160.066 168.225 159.921 168.104 159.814C167.983 159.707 167.819 159.646 167.647 159.646H165.711C165.54 159.646 165.376 159.707 165.255 159.814C165.134 159.921 165.066 160.066 165.066 160.218H158.933C158.42 160.219 157.929 160.4 157.566 160.721C157.204 161.042 157 161.478 157 161.932C157 162.386 157.204 162.822 157.566 163.143C157.929 163.465 158.42 163.646 158.933 163.646H226.064C226.577 163.646 227.07 163.466 227.433 163.144C227.796 162.823 228 162.387 228 161.932C228 161.478 227.796 161.042 227.433 160.72C227.07 160.399 226.577 160.218 226.064 160.218Z" fill="#3F3D56"/>
<path d="M149 148.65V161.643H116.679C115.813 161.673 114.95 161.527 114.141 161.215C113.332 160.902 112.594 160.428 111.97 159.822C111.347 159.216 110.852 158.489 110.513 157.686C110.174 156.883 110 156.019 110 155.146C110 154.274 110.174 153.41 110.513 152.607C110.852 151.804 111.347 151.077 111.97 150.471C112.594 149.865 113.332 149.391 114.141 149.078C114.95 148.766 115.813 148.62 116.679 148.65H149Z" fill="#F2F2F2"/>
<path d="M150 161.172C150 161.298 149.948 161.419 149.856 161.507C149.764 161.596 149.64 161.646 149.51 161.646H116.716C114.935 161.646 113.226 160.962 111.967 159.743C110.708 158.524 110 156.87 110 155.146C110 153.423 110.708 151.769 111.967 150.55C113.226 149.331 114.935 148.646 116.716 148.646H149.51C149.64 148.646 149.764 148.696 149.856 148.785C149.948 148.874 150 148.995 150 149.121C150 149.247 149.948 149.367 149.856 149.456C149.764 149.545 149.64 149.595 149.51 149.595H116.716C115.195 149.597 113.738 150.182 112.664 151.223C111.589 152.264 110.986 153.675 110.986 155.146C110.986 156.618 111.589 158.029 112.664 159.07C113.738 160.111 115.195 160.696 116.716 160.698H149.51C149.64 160.698 149.764 160.748 149.856 160.837C149.948 160.926 150 161.046 150 161.172Z" fill="#042BFD"/>
<path d="M143 134.65V147.643H110.679C109.813 147.673 108.95 147.527 108.141 147.215C107.332 146.902 106.594 146.428 105.97 145.822C105.347 145.216 104.852 144.489 104.513 143.686C104.174 142.883 104 142.019 104 141.146C104 140.274 104.174 139.41 104.513 138.607C104.852 137.804 105.347 137.077 105.97 136.471C106.594 135.865 107.332 135.391 108.141 135.078C108.95 134.766 109.813 134.62 110.679 134.65H143Z" fill="#F2F2F2"/>
<path d="M144 148.136C144 148.271 143.947 148.401 143.853 148.497C143.759 148.593 143.631 148.646 143.498 148.646H109.884C108.98 148.646 108.085 148.465 107.249 148.114C106.414 147.762 105.655 147.246 105.016 146.596C104.377 145.946 103.87 145.175 103.524 144.325C103.178 143.476 103 142.566 103 141.646C103 140.727 103.178 139.817 103.524 138.968C103.87 138.118 104.377 137.347 105.016 136.697C105.655 136.047 106.414 135.531 107.249 135.179C108.085 134.828 108.98 134.646 109.884 134.646H143.498C143.631 134.646 143.759 134.7 143.853 134.796C143.947 134.892 144 135.022 144 135.157C144 135.293 143.947 135.423 143.853 135.519C143.759 135.615 143.631 135.668 143.498 135.668H109.884C108.325 135.67 106.831 136.3 105.73 137.421C104.629 138.542 104.01 140.062 104.01 141.646C104.01 143.231 104.629 144.751 105.73 145.872C106.831 146.993 108.325 147.623 109.884 147.625H143.498C143.631 147.625 143.759 147.678 143.853 147.774C143.947 147.87 144 148 144 148.136Z" fill="#3F3D56"/>
<path d="M142.901 145.646H108.1C108.087 145.647 108.074 145.634 108.062 145.609C108.05 145.584 108.039 145.548 108.029 145.501C108.02 145.455 108.013 145.399 108.008 145.339C108.003 145.278 108 145.212 108 145.146C108 145.081 108.003 145.015 108.008 144.954C108.013 144.893 108.02 144.838 108.029 144.792C108.039 144.745 108.05 144.708 108.062 144.684C108.074 144.659 108.087 144.646 108.1 144.646H142.901C142.927 144.647 142.953 144.7 142.971 144.794C142.99 144.888 143 145.014 143 145.146C143 145.278 142.99 145.405 142.971 145.499C142.953 145.592 142.927 145.646 142.901 145.646Z" fill="#CCCCCC"/>
<path d="M180 207.646V196.504C180 196.011 179.804 195.539 179.456 195.19C179.107 194.842 178.634 194.646 178.141 194.646H135.859C135.366 194.646 134.893 194.842 134.544 195.19C134.196 195.539 134 196.011 134 196.504V207.646H180Z" fill="#CCCCCC"/>
<path d="M180 211.646H134V225.646H180V211.646Z" fill="#CCCCCC"/>
<path d="M134 230.646V241.789C134 242.282 134.196 242.754 134.544 243.103C134.893 243.451 135.366 243.646 135.859 243.646H178.141C178.634 243.646 179.107 243.451 179.456 243.103C179.804 242.754 180 242.282 180 241.789V230.646H134Z" fill="#CCCCCC"/>
<path d="M157 202.646C157.552 202.646 158 201.975 158 201.146C158 200.318 157.552 199.646 157 199.646C156.448 199.646 156 200.318 156 201.146C156 201.975 156.448 202.646 157 202.646Z" fill="white"/>
<path d="M157 221.646C157.552 221.646 158 220.975 158 220.146C158 219.318 157.552 218.646 157 218.646C156.448 218.646 156 219.318 156 220.146C156 220.975 156.448 221.646 157 221.646Z" fill="white"/>
<path d="M157.5 239.646C158.328 239.646 159 238.975 159 238.146C159 237.318 158.328 236.646 157.5 236.646C156.672 236.646 156 237.318 156 238.146C156 238.975 156.672 239.646 157.5 239.646Z" fill="white"/>
<path d="M175 181.65V194.643H142.679C141.813 194.673 140.95 194.527 140.141 194.215C139.332 193.902 138.594 193.428 137.97 192.822C137.347 192.216 136.852 191.489 136.513 190.686C136.174 189.883 136 189.019 136 188.146C136 187.274 136.174 186.41 136.513 185.607C136.852 184.804 137.347 184.077 137.97 183.471C138.594 182.865 139.332 182.391 140.141 182.078C140.95 181.766 141.813 181.62 142.679 181.65H175Z" fill="#F2F2F2"/>
<path d="M176 194.136C176 194.271 175.948 194.401 175.856 194.497C175.764 194.593 175.64 194.646 175.51 194.646H142.72C141.838 194.647 140.964 194.467 140.149 194.115C139.334 193.764 138.593 193.248 137.969 192.598C137.345 191.948 136.849 191.176 136.512 190.327C136.174 189.477 136 188.566 136 187.646C136 186.727 136.174 185.816 136.512 184.966C136.849 184.117 137.345 183.345 137.969 182.695C138.593 182.045 139.334 181.529 140.149 181.178C140.964 180.826 141.838 180.646 142.72 180.646H175.51C175.64 180.646 175.765 180.7 175.856 180.796C175.948 180.892 176 181.022 176 181.157C176 181.293 175.948 181.423 175.856 181.519C175.765 181.615 175.64 181.668 175.51 181.668H142.72C141.2 181.67 139.743 182.3 138.669 183.421C137.594 184.542 136.991 186.062 136.991 187.646C136.991 189.231 137.594 190.751 138.669 191.872C139.743 192.993 141.2 193.623 142.72 193.625H175.51C175.64 193.625 175.764 193.678 175.856 193.774C175.948 193.87 176 194 176 194.136Z" fill="#3F3D56"/>
<path d="M174.901 189.646H140.1C140.087 189.647 140.074 189.634 140.062 189.609C140.05 189.585 140.039 189.548 140.029 189.501C140.02 189.455 140.013 189.399 140.008 189.339C140.003 189.278 140 189.212 140 189.146C140 189.081 140.003 189.015 140.008 188.954C140.013 188.893 140.02 188.838 140.029 188.792C140.039 188.745 140.05 188.708 140.062 188.684C140.074 188.659 140.087 188.646 140.1 188.646H174.901C174.927 188.647 174.953 188.7 174.971 188.794C174.99 188.888 175 189.014 175 189.146C175 189.278 174.99 189.405 174.971 189.499C174.953 189.593 174.927 189.646 174.901 189.646Z" fill="#CCCCCC"/>
<path d="M132 97.1333V15.1596C132.001 14.2282 132.367 13.3353 133.018 12.6766C133.669 12.018 134.552 11.6475 135.473 11.6465H199.527C200.448 11.6476 201.331 12.018 201.982 12.6766C202.633 13.3353 202.999 14.2282 203 15.1596V97.1333C202.999 98.0648 202.633 98.9577 201.982 99.6163C201.331 100.275 200.448 100.645 199.527 100.646H135.473C134.552 100.645 133.669 100.275 133.018 99.6163C132.367 98.9577 132.001 98.0648 132 97.1333ZM135.473 12.4272C134.757 12.428 134.07 12.7161 133.564 13.2284C133.057 13.7407 132.773 14.4352 132.772 15.1596V97.1333C132.773 97.8578 133.057 98.5523 133.564 99.0646C134.07 99.5768 134.757 99.865 135.473 99.8658H199.527C200.243 99.865 200.93 99.5768 201.436 99.0646C201.943 98.5523 202.227 97.8578 202.228 97.1333V15.1596C202.227 14.4352 201.943 13.7407 201.436 13.2284C200.93 12.7161 200.243 12.428 199.527 12.4272H135.473Z" fill="#E6E6E6"/>
<path d="M171 48.9197V32.3733C171.001 31.9155 171.188 31.4765 171.522 31.1528C171.855 30.8291 172.307 30.647 172.779 30.6465H187.221C187.693 30.647 188.145 30.8291 188.478 31.1528C188.812 31.4765 188.999 31.9155 189 32.3733V48.9197C188.999 49.3775 188.812 49.8164 188.478 50.1402C188.145 50.4639 187.693 50.646 187.221 50.6465H172.779C172.307 50.646 171.855 50.4639 171.522 50.1402C171.188 49.8164 171.001 49.3775 171 48.9197Z" fill="#042BFD"/>
<path d="M144 56.9197V40.3733C144 39.9155 144.178 39.4765 144.493 39.1528C144.807 38.8291 145.234 38.647 145.68 38.6465H159.32C159.766 38.647 160.193 38.8291 160.507 39.1528C160.822 39.4765 161 39.9155 161 40.3733V56.9197C161 57.3775 160.822 57.8164 160.507 58.1402C160.193 58.4639 159.766 58.646 159.32 58.6465H145.68C145.234 58.646 144.807 58.4639 144.493 58.1402C144.178 57.8164 144 57.3775 144 56.9197Z" fill="#CCCCCC"/>
<path d="M166 80.9197V64.3733C166.001 63.9155 166.188 63.4765 166.522 63.1528C166.855 62.8291 167.307 62.647 167.779 62.6465H182.221C182.693 62.647 183.145 62.8291 183.478 63.1528C183.812 63.4765 183.999 63.9155 184 64.3733V80.9197C183.999 81.3775 183.812 81.8164 183.478 82.1402C183.145 82.4639 182.693 82.646 182.221 82.6465H167.779C167.307 82.646 166.855 82.4639 166.522 82.1402C166.188 81.8164 166.001 81.3775 166 80.9197Z" fill="#042BFD"/>
<path d="M251.187 158.648H236.515C236.376 158.648 236.239 158.679 236.114 158.739L232.411 160.542C232.289 160.593 232.185 160.677 232.112 160.784C232.039 160.892 232 161.018 232 161.146C232 161.275 232.039 161.401 232.112 161.509C232.185 161.616 232.289 161.7 232.411 161.751L236.114 163.554C236.239 163.614 236.376 163.645 236.515 163.645H251.187C251.39 163.657 251.588 163.59 251.74 163.46C251.892 163.33 251.986 163.147 252 162.95V159.343C251.986 159.146 251.892 158.963 251.74 158.833C251.588 158.703 251.39 158.636 251.187 158.648Z" fill="#3F3D56"/>
<path d="M252 159.343V162.95C251.985 163.147 251.885 163.33 251.722 163.46C251.559 163.59 251.346 163.657 251.13 163.645H248V158.648H251.13C251.346 158.636 251.559 158.703 251.722 158.833C251.885 158.963 251.985 159.146 252 159.343Z" fill="#042BFD"/>
<path d="M251.073 130.081C251.732 129.785 252.443 129.637 253.16 129.647C253.877 129.657 254.584 129.825 255.235 130.14C255.885 130.454 256.464 130.909 256.935 131.473C257.405 132.037 257.755 132.698 257.963 133.413C258.028 133.64 258.077 133.871 258.111 134.105L278.441 144.607L283.146 141.359L289 148.379L281.816 154.457C280.952 155.182 279.887 155.598 278.778 155.642C277.67 155.687 276.577 155.358 275.662 154.704L255.035 139.845C254.882 139.913 254.725 139.973 254.566 140.024C253.879 140.24 253.156 140.303 252.445 140.208C251.733 140.113 251.049 139.862 250.437 139.473C249.825 139.083 249.299 138.563 248.893 137.947C248.488 137.331 248.211 136.633 248.083 135.897C248.045 135.684 248.02 135.468 248.008 135.252C247.95 134.167 248.214 133.09 248.762 132.165C249.31 131.241 250.116 130.513 251.073 130.081Z" fill="#FFB8B8"/>
<path d="M293.239 193.646H271.113C271.113 194.26 248.309 194.758 248.309 194.758C247.951 195.017 247.625 195.316 247.337 195.646C246.471 196.643 245.997 197.902 246 199.202V200.091C246.001 201.564 246.608 202.977 247.688 204.019C248.768 205.06 250.233 205.646 251.761 205.646H293.239C294.767 205.645 296.231 205.059 297.311 204.018C298.391 202.976 298.999 201.564 299 200.091V199.202C298.998 197.729 298.39 196.317 297.31 195.276C296.23 194.235 294.766 193.649 293.239 193.646Z" fill="#3F3D56"/>
<path d="M269 244.646H275V205.646H269V244.646Z" fill="#3F3D56"/>
<path d="M252 244.285C252 244.916 261.178 244.529 272.5 244.529C283.822 244.529 293 244.916 293 244.285C293 243.653 283.822 238.646 272.5 238.646C261.178 238.646 252 243.653 252 244.285Z" fill="#3F3D56"/>
<path d="M256.999 239.646L251.579 239.646L249 225.646L257 225.647L256.999 239.646Z" fill="#FFB8B8"/>
<path d="M259 245.646L240 245.646V245.426C240 244.535 240.191 243.654 240.563 242.831C240.935 242.009 241.479 241.261 242.166 240.632C242.853 240.002 243.668 239.503 244.565 239.162C245.462 238.822 246.424 238.646 247.395 238.646H247.396L259 238.647L259 245.646Z" fill="#2F2E41"/>
<path d="M249.025 230.403L237.788 204.838C236.849 202.684 236.746 200.25 237.497 198.021C238.248 195.792 239.8 193.932 241.842 192.812L266.218 179.552L277.34 178.593L287.601 177.646L287.675 177.774C287.769 177.936 289.975 181.801 288.484 186.04C287.353 189.254 284.411 191.766 279.739 193.503C268.836 197.559 256.24 201.026 251.33 202.327C251.113 202.384 250.911 202.486 250.735 202.627C250.56 202.769 250.416 202.946 250.314 203.148C250.211 203.348 250.149 203.567 250.134 203.791C250.118 204.016 250.149 204.241 250.223 204.454L260.664 228.248C260.773 228.55 260.812 228.873 260.778 229.193C260.745 229.513 260.639 229.82 260.47 230.092C260.301 230.364 260.073 230.592 259.802 230.76C259.532 230.928 259.228 231.031 258.912 231.061L251.111 231.637C251.045 231.643 250.979 231.646 250.913 231.646C250.514 231.646 250.123 231.529 249.788 231.308C249.453 231.087 249.188 230.773 249.025 230.403Z" fill="#2F2E41"/>
<path d="M259.999 239.646L254.579 239.646L252 225.646L260 225.647L259.999 239.646Z" fill="#FFB8B8"/>
<path d="M262 245.646L243 245.646V245.426C243 244.535 243.191 243.654 243.563 242.831C243.935 242.009 244.479 241.261 245.166 240.632C245.853 240.002 246.668 239.503 247.565 239.162C248.462 238.822 249.424 238.646 250.395 238.646H250.396L262 238.647L262 245.646Z" fill="#2F2E41"/>
<path d="M252.257 232.403L240.803 206.838C239.846 204.684 239.741 202.25 240.507 200.021C241.272 197.792 242.854 195.932 244.935 194.812L269.779 181.552L281.116 180.593L291.574 179.646L291.649 179.774C291.746 179.936 293.994 183.801 292.474 188.04C291.321 191.254 288.323 193.766 283.561 195.503C272.448 199.559 259.61 203.026 254.606 204.327C254.385 204.384 254.178 204.486 254 204.627C253.821 204.769 253.674 204.946 253.57 205.148C253.465 205.348 253.402 205.567 253.386 205.791C253.371 206.016 253.402 206.241 253.478 206.454L264.119 230.248C264.23 230.55 264.27 230.873 264.236 231.193C264.202 231.513 264.094 231.82 263.922 232.092C263.749 232.364 263.516 232.592 263.241 232.76C262.966 232.928 262.655 233.031 262.334 233.061L254.382 233.637C254.315 233.643 254.248 233.646 254.181 233.646C253.774 233.646 253.375 233.529 253.034 233.308C252.692 233.087 252.422 232.773 252.257 232.403Z" fill="#2F2E41"/>
<path d="M246.222 153.866C241.48 147.528 237.732 140.499 235.107 133.022C234.955 132.575 234.965 132.088 235.137 131.648C235.309 131.208 235.631 130.843 236.045 130.619L252.27 121.883C252.533 121.741 252.824 121.66 253.122 121.648C253.42 121.636 253.717 121.692 253.99 121.813C254.269 121.934 254.516 122.118 254.713 122.35C254.909 122.582 255.051 122.856 255.127 123.151C257.015 130.356 260.565 137.013 265.489 142.584C265.692 142.811 265.841 143.081 265.924 143.374C266.007 143.667 266.022 143.976 265.969 144.276C265.917 144.571 265.8 144.85 265.625 145.093C265.449 145.336 265.221 145.535 264.958 145.676L248.732 154.412C248.317 154.634 247.837 154.701 247.377 154.601C246.918 154.501 246.508 154.241 246.222 153.866Z" fill="#CCCCCC"/>
<path d="M247.243 153.415C247.333 153.527 247.458 153.605 247.599 153.634C247.739 153.663 247.885 153.642 248.012 153.574L264.68 144.612C264.761 144.57 264.831 144.509 264.885 144.435C264.939 144.361 264.975 144.275 264.99 144.185C265.007 144.09 265.002 143.992 264.976 143.898C264.949 143.805 264.901 143.72 264.836 143.648C259.628 137.765 255.874 130.734 253.877 123.124C253.854 123.03 253.809 122.943 253.747 122.869C253.685 122.795 253.606 122.737 253.517 122.698C253.434 122.661 253.343 122.643 253.252 122.647C253.16 122.651 253.071 122.676 252.991 122.72L236.323 131.682C236.197 131.751 236.098 131.861 236.045 131.995C235.991 132.128 235.986 132.277 236.029 132.414C238.677 139.947 242.459 147.03 247.243 153.415Z" fill="white"/>
<path d="M301 151.668L288.383 156.646L285.303 147.762C284.894 146.583 284.899 145.291 285.319 144.115C285.739 142.939 286.545 141.956 287.595 141.337C288.658 140.712 289.901 140.502 291.1 140.745C292.299 140.988 293.375 141.668 294.133 142.663L301 151.668Z" fill="#042BFD"/>
<path d="M267.745 186.221C267.467 186.029 267.234 185.782 267.062 185.497C266.89 185.211 266.782 184.893 266.746 184.563C265.055 169.194 266.233 157.166 270.345 147.793C271.069 146.176 272.161 144.741 273.537 143.594C274.913 142.447 276.538 141.618 278.29 141.171L288.959 140.646L289.015 140.672C291.422 141.821 293.386 143.694 294.614 146.015C295.843 148.336 296.27 150.981 295.834 153.557C292.402 162.366 289.528 171.538 291.72 178.937C291.812 179.246 291.838 179.57 291.799 179.89C291.759 180.21 291.653 180.518 291.488 180.797C291.327 181.067 291.112 181.302 290.855 181.487C290.598 181.672 290.305 181.805 289.994 181.876L269.671 186.584C269.342 186.66 269 186.667 268.668 186.604C268.336 186.542 268.021 186.411 267.745 186.221Z" fill="#042BFD"/>
<path d="M285.5 136.646C291.851 136.646 297 131.498 297 125.146C297 118.795 291.851 113.646 285.5 113.646C279.149 113.646 274 118.795 274 125.146C274 131.498 279.149 136.646 285.5 136.646Z" fill="#FFB8B8"/>
<path d="M253.163 134.16L244.194 138.515C243.853 138.68 243.467 138.69 243.119 138.542C242.772 138.394 242.492 138.1 242.341 137.725L242.119 137.172C241.969 136.797 241.96 136.372 242.095 135.989C242.23 135.607 242.497 135.299 242.837 135.133L251.806 130.778C252.147 130.612 252.533 130.603 252.881 130.751C253.228 130.899 253.508 131.193 253.659 131.568L253.881 132.121C254.031 132.496 254.04 132.921 253.905 133.304C253.77 133.686 253.503 133.994 253.163 134.16Z" fill="#CCCCCC"/>
<path d="M257.163 140.16L248.194 144.515C247.853 144.68 247.467 144.69 247.119 144.542C246.772 144.394 246.492 144.1 246.341 143.725L246.119 143.172C245.969 142.797 245.96 142.372 246.095 141.989C246.23 141.607 246.497 141.299 246.837 141.133L255.806 136.778C256.147 136.612 256.533 136.603 256.881 136.751C257.228 136.899 257.508 137.193 257.659 137.568L257.881 138.121C258.031 138.496 258.04 138.921 257.905 139.304C257.77 139.686 257.503 139.994 257.163 140.16Z" fill="#CCCCCC"/>
<path d="M263.402 163.593L243.714 148.342C243.558 148.397 243.398 148.443 243.236 148.481C242.542 148.64 241.82 148.655 241.119 148.523C240.418 148.391 239.754 148.115 239.168 147.715C238.579 147.314 238.084 146.794 237.716 146.189C237.347 145.585 237.115 144.911 237.034 144.211C236.902 143.093 237.158 141.964 237.762 141.007C238.366 140.05 239.281 139.321 240.36 138.939C241.033 138.702 241.749 138.607 242.462 138.661C243.175 138.715 243.869 138.916 244.497 139.251C245.125 139.586 245.675 140.048 246.109 140.606C246.543 141.164 246.852 141.806 247.015 142.49C247.066 142.706 247.101 142.926 247.121 143.147L266.72 154.249L271.597 151.492L277 158.438L269.427 163.737C268.541 164.353 267.476 164.671 266.39 164.645C265.305 164.619 264.257 164.25 263.402 163.593Z" fill="#FFB8B8"/>
<path d="M279.742 160.646L269 153.139L274.048 145.79C274.718 144.814 275.703 144.113 276.827 143.811C277.952 143.509 279.144 143.625 280.193 144.139C281.254 144.659 282.1 145.552 282.576 146.657C283.053 147.761 283.13 149.004 282.793 150.162L279.742 160.646Z" fill="#042BFD"/>
<path d="M280.913 123.745C277.978 125.755 274.125 127.821 271.128 125.68C269.16 124.275 268.54 121.672 269.338 119.389C270.773 115.281 274.716 113.473 278.487 112.087C283.388 110.285 288.725 108.852 293.785 110.142C298.845 111.433 303.317 116.336 302.403 121.481C301.669 125.619 297.769 129.062 298.323 133.227C298.88 137.42 303.591 139.627 307.75 140.376C311.909 141.125 316.564 141.366 319.553 144.356C323.366 148.17 322.414 154.988 318.826 159.015C315.238 163.042 309.823 164.867 304.577 166.108C297.625 167.752 290.107 168.616 283.505 165.888C276.902 163.159 271.765 155.814 273.677 148.926C274.485 146.017 276.388 143.558 278.227 141.164C280.067 138.771 281.929 136.267 282.63 133.331C283.215 130.883 282.782 128.042 281.161 126.206C280.866 125.885 280.68 125.478 280.631 125.045C280.581 124.611 280.67 124.173 280.884 123.793L280.913 123.745Z" fill="#2F2E41"/>
<path d="M66.0682 179.596C63.1017 180.653 59.9166 180.918 56.8198 180.365C53.723 179.812 50.8189 178.459 48.3872 176.436C42.1944 171.164 40.2527 162.478 38.6729 154.435C37.1153 146.506 35.5576 138.576 34 130.646L43.7832 137.479C50.8186 142.393 58.0126 147.464 62.8839 154.581C67.7553 161.699 69.8816 171.414 65.9676 179.116" fill="#E6E6E6"/>
<path d="M65.4135 207.135C66.432 199.979 67.4793 192.731 66.7648 185.499C66.1304 179.075 64.0987 172.802 59.9626 167.658C57.7671 164.932 55.0956 162.597 52.0682 160.757C51.2788 160.277 50.5522 161.484 51.3382 161.962C56.5764 165.155 60.628 169.871 62.9088 175.428C65.4278 181.608 65.8324 188.345 65.3983 194.911C65.1358 198.881 64.5794 202.825 64.0187 206.764C63.9745 206.942 64.0021 207.13 64.0959 207.289C64.1896 207.449 64.3426 207.568 64.5239 207.622C64.7088 207.67 64.9059 207.646 65.0724 207.555C65.239 207.464 65.3615 207.313 65.4135 207.135Z" fill="#F2F2F2"/>
<path d="M56 194.771C54.7373 196.643 53.0015 198.166 50.9601 199.193C48.9186 200.221 46.6402 200.719 44.3444 200.638C38.4441 200.365 33.5251 196.349 29.0971 192.536L16 181.258L24.6681 180.854C30.9017 180.563 37.2961 180.292 43.2334 182.166C49.1707 184.041 54.6464 188.553 55.732 194.546" fill="#E6E6E6"/>
<path d="M67.9085 211.688C63.1949 203.147 57.7277 193.655 47.9586 190.621C45.2423 189.781 42.3941 189.48 39.5674 189.734C38.6765 189.813 38.899 191.219 39.7882 191.141C44.5265 190.738 49.2555 192.019 53.1793 194.768C56.9551 197.4 59.8949 201.059 62.3832 204.939C63.9073 207.316 65.2726 209.793 66.6381 212.268C67.0744 213.058 68.3499 212.488 67.9085 211.688Z" fill="#F2F2F2"/>
<path d="M75.0923 220.779C74.933 218.959 74.2702 217.217 73.1761 215.742C72.082 214.267 70.5986 213.117 68.8874 212.416V207.646H60.7747V212.567C59.1477 213.302 57.7475 214.449 56.7168 215.892C55.6861 217.335 55.0619 219.021 54.9076 220.779L53 242.646H77L75.0923 220.779Z" fill="#F2F2F2"/>
</svg>
