<svg width="416" height="113" viewBox="0 0 416 113" fill="none" xmlns="http://www.w3.org/2000/svg">
<mask id="mask0_282_6273" style="mask-type:luminance" maskUnits="userSpaceOnUse" x="0" y="-1" width="416" height="227">
<path d="M416 -1L0 -1L0 226L416 226V-1Z" fill="white"/>
<path d="M415.5 -0.5V225.5L0.5 225.5L0.5 -0.5L415.5 -0.5Z" stroke="white"/>
</mask>
<g mask="url(#mask0_282_6273)">
<path d="M-263.539 271.285C-258.79 249.578 -231.958 236.639 -206.062 234.114C-180.166 231.56 -153.784 236.526 -127.611 236.526C-57.4804 236.498 8.62898 197 31.5783 141.413C38.9276 123.593 42.1517 104.611 49.3277 86.7343C56.5037 68.858 68.6717 51.4642 88.4317 42.9517C116.858 30.722 152.461 40.1425 181.13 53.8193C209.8 67.496 236.666 85.5993 268.456 91.8702C310.229 100.099 353.597 85.9398 385.56 63.0979C417.488 40.256 440.056 9.55428 462.104 -20.6367" stroke="url(#paint0_linear_282_6273)" stroke-opacity="0.23" stroke-miterlimit="10"/>
<path d="M-265.094 269.188C-259.894 247.594 -233.131 234.684 -207.2 232.073C-196.003 230.938 -184.667 231.222 -173.331 231.988C-158.459 232.981 -143.552 234.74 -128.75 234.996C-98.5551 235.535 -69.1231 229.207 -43.2617 216.921C-23.2937 207.444 -5.50973 194.93 8.66894 179.92C18.8263 169.251 26.9036 157.22 32.5543 144.167C35.0849 138.322 37.1649 132.335 39.0716 126.291C42.9543 114.005 46.1436 101.52 51.1703 89.6305C56.8903 76.1524 65.5223 63.0999 78.3489 54.2185C82.3356 51.4377 86.669 49.0543 91.4183 47.1815C111.352 39.35 134.405 42.0456 156.453 48.7138C165.986 51.608 175.346 55.2116 184.048 59.099C193.789 63.4404 203.322 68.1223 212.821 72.5771C231.472 81.3734 249.88 89.4603 269.813 92.4113C282.778 94.3124 295.57 93.83 308.224 91.5033C333.946 86.793 359.218 74.2229 380.296 58.191C386.085 53.7929 391.597 49.1678 396.936 44.344C420.648 22.9209 440.477 -1.8505 460.029 -25.2031" stroke="url(#paint1_linear_282_6273)" stroke-opacity="0.23" stroke-miterlimit="10"/>
<path d="M-266.656 267.058C-260.971 245.578 -234.312 232.667 -208.347 229.972C-197.115 228.808 -185.779 229.092 -174.408 229.886C-159.536 230.936 -144.63 232.866 -129.862 233.405C-99.7362 234.512 -70.3389 229.205 -44.2349 217.43C-24.0589 208.35 -5.99758 196.432 8.73576 181.989C19.2744 171.661 27.6638 159.829 33.5571 146.861C36.1918 141.073 38.3411 135.086 40.3518 129.042C44.4078 116.784 47.7704 104.27 53.0051 92.4947C58.9678 79.1017 67.9118 66.3613 81.1544 57.9055C85.2451 55.295 89.6131 53.0534 94.3971 51.3509C114.434 44.2288 137.176 47.577 159.189 54.2735C168.757 57.1678 178.186 60.6579 186.992 64.2899C196.837 68.3475 206.474 72.6038 215.938 76.5195C234.52 84.2943 252.442 91.1327 271.232 92.8352C283.4 93.9418 295.013 92.6649 306.696 89.7139C330.373 83.67 354.397 69.9649 375.128 53.1953C380.813 48.5985 386.325 43.7748 391.699 38.8375C415.653 16.7618 436.973 -7.78259 458.016 -29.8867" stroke="url(#paint2_linear_282_6273)" stroke-opacity="0.23" stroke-miterlimit="10"/>
<path d="M-268.219 264.93C-262.048 243.563 -235.493 230.653 -209.493 227.9C-198.261 226.709 -186.856 226.964 -175.485 227.815C-160.579 228.95 -145.741 231.05 -130.973 231.844C-100.883 233.519 -71.5894 229.234 -45.2081 217.969C-24.8241 209.286 -6.45074 197.965 8.8026 184.089C19.7573 174.101 28.4239 162.468 34.5599 149.557C37.2986 143.797 39.5519 137.866 41.6666 131.794C45.8959 119.565 49.4319 107.023 54.8746 95.3323C61.0799 82.0244 70.3013 69.5962 83.9946 61.5661C88.1893 59.1258 92.592 57.0261 97.376 55.5222C117.483 49.1094 139.947 53.1387 161.925 59.8352C171.528 62.7578 180.992 66.1061 189.901 69.4827C199.851 73.2566 209.557 77.0872 219.021 80.4922C237.533 87.1887 255.005 92.8353 272.616 93.2893C284.021 93.5731 294.456 91.5584 305.099 87.9548C326.731 80.6341 349.507 65.7088 369.856 48.2298C375.437 43.406 380.915 38.4404 386.323 33.3613C410.485 10.6329 433.296 -13.6845 455.899 -34.5117" stroke="url(#paint3_linear_282_6273)" stroke-opacity="0.23" stroke-miterlimit="10"/>
<path d="M-269.773 262.802C-263.117 241.578 -236.667 228.639 -210.597 225.83C-199.331 224.61 -187.925 224.837 -176.52 225.773C-161.613 226.965 -146.776 229.235 -132.043 230.313C-102.021 232.526 -72.7628 229.292 -46.1734 218.566C-25.5468 210.28 -6.86141 199.583 8.84259 186.247C20.2479 176.599 29.1572 165.164 35.5012 152.339C38.3439 146.635 40.7012 140.705 42.8852 134.633C47.2879 122.403 50.9973 109.89 56.6826 98.2559C63.1306 85.0615 72.6293 72.8886 86.7733 65.3409C91.0719 63.0425 95.5093 61.1414 100.328 59.7794C120.539 54.076 142.656 58.7862 164.669 65.4827C174.272 68.4337 183.84 71.6401 192.819 74.7897C202.872 78.3082 212.683 81.6849 222.077 84.5791C240.52 90.2541 257.541 94.6239 273.939 93.8577C284.581 93.347 293.837 90.5379 303.475 86.2816C323.096 77.6556 344.555 61.567 364.592 43.3786C370.104 38.3562 375.547 33.192 380.989 27.971C405.36 4.61834 429.661 -19.5288 453.789 -39.0508" stroke="url(#paint4_linear_282_6273)" stroke-opacity="0.23" stroke-miterlimit="10"/>
<path d="M-271.336 260.676C-264.195 239.565 -237.848 226.626 -211.744 223.76C-200.477 222.512 -189.037 222.739 -177.597 223.704C-162.691 224.952 -147.853 227.392 -133.155 228.754C-103.203 231.535 -74.0133 229.294 -47.1466 219.107C-26.3119 211.219 -7.3146 201.146 8.9094 188.377C20.7307 179.07 29.9174 167.805 36.5041 155.065C39.4508 149.39 41.9121 143.488 44.1654 137.444C48.7414 125.242 52.6241 112.701 58.5174 101.18C65.2081 88.0712 74.9841 76.2105 89.5788 69.0883C93.9468 66.9602 98.4535 65.201 103.272 64.0092C123.552 59.0436 145.392 64.3781 167.371 71.1313C177.008 74.0823 186.645 77.1752 195.728 80.0695C205.885 83.3042 215.765 86.2552 225.16 88.6103C243.533 93.2355 260.173 96.3851 275.323 94.3705C285.237 93.0652 293.245 89.4616 301.912 84.5811C319.523 74.6215 339.699 57.3978 359.389 38.4717C364.797 33.2507 370.24 27.9162 375.717 22.5533C400.296 -1.45193 426.123 -25.3721 451.776 -43.6172" stroke="url(#paint5_linear_282_6273)" stroke-opacity="0.23" stroke-miterlimit="10"/>
<path d="M-278.375 263C-270.748 242.002 -244.506 229.091 -218.367 226.14C-207.066 224.864 -195.591 225.062 -184.151 226.084C-169.21 227.417 -154.442 230.028 -139.743 231.645C-109.826 234.965 -80.7056 233.773 -53.5963 224.097C-32.5536 216.635 -13.2096 207.158 3.4997 194.928C15.7717 185.961 25.201 174.895 32.0304 162.24C35.0464 156.593 37.6117 150.72 40.0037 144.676C44.753 132.503 48.8437 119.933 54.9104 108.498C61.8437 95.502 71.897 83.8966 86.9424 77.2285C91.4144 75.2422 95.9557 73.6532 100.809 72.6317C121.158 68.3755 142.686 74.391 164.665 81.1442C174.337 84.1236 184.044 87.0746 193.196 89.7135C203.457 92.6645 213.406 95.1899 222.801 97.0342C241.105 100.638 257.398 102.482 271.265 99.2759C280.486 97.1477 287.246 92.778 294.873 87.2449C310.438 75.98 329.366 57.5646 348.71 37.9291C354.014 32.4811 359.457 26.9764 364.969 21.5C389.79 -3.1579 417.073 -26.851 444.252 -43.8477" stroke="url(#paint6_linear_282_6273)" stroke-opacity="0.23" stroke-miterlimit="10"/>
<path d="M-274.492 256.446C-266.38 235.59 -240.242 222.651 -214.068 219.615C-202.767 218.31 -191.258 218.508 -179.783 219.587C-164.842 220.977 -150.074 223.758 -135.41 225.659C-105.562 229.546 -76.4762 229.376 -49.1242 220.211C-27.8735 213.146 -8.18282 204.293 9.01185 192.602C21.6999 183.976 31.4065 173.108 38.4785 160.538C41.5985 154.948 44.2679 149.075 46.7292 143.031C51.6519 130.858 55.9159 118.288 62.1905 106.938C69.3665 94.0273 79.6972 82.7057 95.1932 76.52C99.7345 74.704 104.345 73.2568 109.199 72.4056C129.652 68.8587 150.868 75.5552 172.812 82.3084C182.484 85.2878 192.295 88.1253 201.516 90.5088C211.847 93.1761 221.935 95.2758 231.295 96.5811C249.529 99.1348 265.476 99.674 278.025 95.3042C286.588 92.3248 292.031 87.2173 298.687 81.06C312.241 68.4615 329.887 48.9111 348.884 28.5378C354.119 22.8912 359.492 17.2162 365.073 11.5979C390.103 -13.7126 418.911 -37.2071 447.615 -52.8984" stroke="url(#paint7_linear_282_6273)" stroke-opacity="0.23" stroke-miterlimit="10"/>
<path d="M-276.055 254.32C-267.457 233.578 -241.423 220.639 -215.18 217.546C-203.844 216.212 -192.3 216.382 -180.825 217.517C-165.884 218.993 -151.116 221.944 -136.521 224.1C-106.743 228.555 -77.7266 229.406 -50.0973 220.78C-28.6386 214.112 -8.63598 205.884 9.07869 194.732C22.2174 186.447 32.1667 175.778 39.4814 163.264C42.7054 157.703 45.4787 151.858 48.044 145.814C53.14 133.669 57.5774 121.071 64.06 109.806C71.4787 96.9803 82.052 85.9424 98.0334 80.2107C102.679 78.5365 107.324 77.2597 112.212 76.607C132.735 73.7695 153.639 81.1187 175.583 87.9003C185.289 90.908 195.169 93.6037 204.495 95.7602C214.929 98.172 225.087 99.8178 234.447 100.612C252.612 102.145 268.281 101.322 279.479 95.8169C287.383 91.9579 291.543 86.141 297.159 79.3594C308.668 65.4273 325.065 44.7419 343.681 23.6309C348.812 17.7857 354.185 11.912 359.801 6.18028C385.039 -19.7828 415.337 -43.0503 445.567 -57.4648" stroke="url(#paint8_linear_282_6273)" stroke-opacity="0.23" stroke-miterlimit="10"/>
<path d="M-277.613 252.192C-268.531 231.563 -242.6 218.624 -216.323 215.474C-204.987 214.112 -193.408 214.254 -181.899 215.446C-166.957 216.978 -152.224 220.1 -137.629 222.568C-107.885 227.562 -78.9386 229.463 -51.0666 221.348C-29.3999 215.077 -9.05059 207.473 9.14941 196.889C22.7387 188.972 32.9308 178.473 40.4881 166.045C43.8161 160.54 46.6588 154.695 49.3281 148.651C54.6321 136.535 59.2081 123.908 65.8988 112.757C73.5601 100.045 84.4108 89.2624 100.843 84.013C105.557 82.5092 110.272 81.4025 115.16 80.8918C135.752 78.7637 156.379 86.7938 178.288 93.5754C188.029 96.5832 197.944 99.1653 207.373 101.066C217.912 103.195 228.139 104.415 237.464 104.67C255.56 105.152 270.883 102.911 280.797 96.3562C288.008 91.5892 290.885 85.0913 295.531 77.657C305.029 62.3913 320.109 40.5425 338.413 18.7222C343.475 12.6783 348.813 6.63442 354.464 0.732415C379.909 -25.8833 411.733 -48.9238 443.488 -62.0898" stroke="url(#paint9_linear_282_6273)" stroke-opacity="0.23" stroke-miterlimit="10"/>
<path d="M-279.172 250.064C-269.639 229.549 -243.777 216.638 -217.465 213.403C-206.095 212.013 -194.516 212.155 -183.007 213.375C-168.031 214.992 -153.332 218.255 -138.772 221.008C-109.097 226.569 -80.2198 229.463 -52.0705 221.887C-30.1612 216.014 -9.46517 209.062 9.1855 198.989C23.2255 191.413 33.6602 181.112 41.4602 168.741C44.8922 163.265 47.8388 157.448 50.5775 151.404C56.0548 139.288 60.8041 126.661 67.7028 115.595C75.6068 102.968 86.7002 92.4405 103.618 87.6735C108.436 86.3115 113.185 85.3752 118.108 85.0347C138.804 83.6443 159.084 92.2987 180.994 99.137C190.735 102.173 200.754 104.613 210.252 106.259C220.895 108.104 231.191 108.926 240.516 108.643C258.508 108.104 273.519 104.358 282.116 96.8103C288.668 91.0786 290.263 83.9564 293.868 75.8979C301.322 59.2985 315.154 36.3148 333.111 13.7567C338.068 7.48579 343.372 1.30004 349.092 -4.74384C374.78 -32.0122 408.06 -54.8257 441.375 -66.7148" stroke="url(#paint10_linear_282_6273)" stroke-opacity="0.23" stroke-miterlimit="10"/>
<path d="M-280.734 247.964C-270.716 227.591 -244.958 214.652 -218.612 211.36C-207.241 209.941 -195.593 210.055 -184.084 211.36C-169.108 213.034 -154.409 216.496 -139.884 219.504C-110.244 225.633 -81.4357 229.548 -53.0437 222.483C-30.9263 217.035 -9.88369 210.679 9.25231 201.145C23.7083 193.938 34.4203 183.808 42.463 171.522C45.999 166.102 49.0497 160.285 51.8923 154.241C57.543 142.153 62.4656 129.527 69.607 118.517C77.7536 106.004 89.0896 95.732 106.527 91.419C111.415 90.1988 116.234 89.4327 121.191 89.2624C141.956 88.5814 161.959 97.9168 183.834 104.755C193.61 107.82 203.698 110.118 213.3 111.537C224.047 113.097 234.447 113.495 243.738 112.7C261.66 111.14 276.255 105.89 283.639 97.3777C289.428 90.6812 289.81 82.9348 292.444 74.2237C297.852 56.2907 310.436 32.1719 328.047 8.90444C332.9 2.43494 338.204 -3.94943 343.924 -10.1068C369.82 -37.9994 404.591 -60.6427 439.431 -71.2266" stroke="url(#paint11_linear_282_6273)" stroke-opacity="0.23" stroke-miterlimit="10"/>
<path d="M-282.293 245.835C-271.789 225.575 -246.136 212.636 -219.72 209.259C-208.314 207.812 -196.666 207.897 -185.122 209.259C-170.146 210.99 -155.482 214.622 -140.957 217.914C-111.386 224.582 -82.613 229.548 -54.013 223.021C-31.6876 217.971 -10.2983 212.267 9.2884 203.244C24.1951 196.377 35.1497 186.446 43.4351 174.245C47.0751 168.853 50.2297 163.065 53.1417 157.021C58.9657 144.962 64.0617 132.306 71.4111 121.41C79.7657 108.982 91.3791 98.9658 109.302 95.1636C114.294 94.1137 119.147 93.4894 124.104 93.4894C144.939 93.5178 164.63 103.534 186.504 110.373C196.315 113.437 206.472 115.622 216.144 116.785C226.995 118.091 237.464 118.034 246.755 116.7C264.608 114.118 278.752 107.336 284.958 97.8592C289.984 90.1696 289.152 81.8273 290.782 72.4919C294.144 53.2253 305.48 27.9432 322.744 3.96629C327.528 -2.70183 332.798 -9.25646 338.552 -15.5557C364.656 -44.101 400.952 -66.5172 437.318 -75.8242" stroke="url(#paint12_linear_282_6273)" stroke-opacity="0.23" stroke-miterlimit="10"/>
<path d="M-283.883 243.708C-272.893 223.562 -247.379 210.623 -220.893 207.189C-209.488 205.714 -197.771 205.799 -186.227 207.189C-171.216 209.005 -156.587 212.779 -142.096 216.354C-112.595 223.59 -83.8908 229.577 -55.0135 223.562C-32.4801 218.908 -10.7441 213.829 9.32787 205.373C24.6852 198.875 35.8825 189.114 44.4105 176.97C48.1545 171.607 51.3786 165.847 54.4292 159.803C60.4266 147.744 65.6959 135.088 73.2532 124.277C81.8505 111.963 93.7066 102.173 112.115 98.8535C117.176 97.9455 122.099 97.5198 127.091 97.6901C148.029 98.4278 167.408 109.097 189.283 115.964C199.093 119.056 209.355 121.099 219.096 122.007C230.051 123.029 240.589 122.575 249.88 120.702C267.629 117.099 281.288 108.813 286.384 98.3427C290.579 89.6883 288.603 80.7218 289.261 70.7338C290.579 50.1336 300.632 23.7164 317.549 -0.998178C322.229 -7.8933 327.499 -14.6182 333.288 -21.0309C359.635 -50.2288 397.387 -72.4181 435.277 -80.4766" stroke="url(#paint13_linear_282_6273)" stroke-opacity="0.23" stroke-miterlimit="10"/>
<path d="M-285.445 241.58C-273.971 221.575 -248.56 208.608 -222.04 205.118C-210.6 203.614 -198.883 203.671 -187.304 205.146C-172.293 207.019 -157.699 210.992 -143.243 214.822C-113.776 222.625 -85.1413 229.634 -56.0213 224.129C-33.28 219.873 -11.1626 215.446 9.36005 207.501C25.1681 201.372 36.608 191.782 45.3787 179.722C49.2267 174.416 52.5547 168.656 55.6747 162.641C61.8454 150.61 67.2881 137.926 75.0534 127.2C83.8934 114.971 95.9921 105.437 114.885 102.599C120.051 101.833 125.008 101.578 130 101.918C151.008 103.365 170.075 114.715 191.949 121.582C201.795 124.675 212.091 126.604 221.971 127.257C232.995 127.995 243.637 127.115 252.893 124.703C270.573 120.106 283.677 110.289 287.664 98.8252C291.027 89.2061 287.941 79.6153 287.56 69.0031C286.832 47.0976 295.637 19.5171 312.208 -5.9353C316.819 -13.0291 322.019 -19.9242 327.877 -26.5072C354.432 -56.3577 393.709 -78.3483 433.125 -85.1016" stroke="url(#paint14_linear_282_6273)" stroke-opacity="0.23" stroke-miterlimit="10"/>
<path d="M-287.004 239.452C-275.044 219.561 -249.737 206.622 -223.183 203.047C-211.743 201.514 -199.956 201.571 -188.377 203.075C-173.367 205.033 -158.772 209.147 -144.351 213.262C-114.953 221.604 -86.3879 229.634 -56.9905 224.697C-34.0412 220.866 -11.5772 217.064 9.4308 209.63C25.7241 203.869 37.4068 194.449 46.3855 182.446C50.3375 177.168 53.7695 171.465 56.9588 165.421C63.3028 153.419 68.9535 140.707 76.8921 130.094C85.9748 117.95 98.3508 108.643 117.695 106.344C122.93 105.72 127.991 105.635 132.983 106.146C154.095 108.302 172.85 120.333 194.69 127.228C204.57 130.35 214.935 132.137 224.884 132.563C236.012 133.017 246.759 131.74 255.98 128.789C273.591 123.171 286.106 111.878 289.052 99.3926C291.548 88.8087 287.354 78.5937 286.002 67.3572C283.194 44.1181 290.786 15.3742 307.01 -10.7875C311.516 -18.0799 316.716 -25.1736 322.61 -31.8701C349.372 -62.3733 390.14 -84.1369 431.082 -89.6133" stroke="url(#paint15_linear_282_6273)" stroke-opacity="0.23" stroke-miterlimit="10"/>
<path d="M-288.566 237.35C-276.121 217.573 -250.918 204.634 -224.294 201.002C-212.82 199.441 -201.033 199.47 -189.42 201.03C-174.374 203.045 -159.814 207.358 -145.428 211.728C-116.1 220.637 -87.569 229.689 -57.929 225.262C-34.737 221.829 -11.961 218.679 9.53232 211.756C26.2763 206.365 38.2017 197.086 47.423 185.197C51.479 179.976 55.015 174.273 58.3083 168.229C64.8256 156.226 70.6496 143.514 78.7963 132.987C88.1216 120.956 100.74 111.848 120.57 110.06C125.874 109.578 131.004 109.663 135.996 110.344C157.178 113.238 175.62 125.893 197.46 132.817C207.375 135.938 217.81 137.612 227.828 137.782C239.06 137.981 249.876 136.25 259.098 132.76C276.639 126.12 288.564 113.38 290.471 99.8449C292.066 88.353 286.762 77.457 284.439 65.5679C279.516 40.9951 285.93 11.1163 301.807 -15.7832C306.21 -23.2742 311.41 -30.5382 317.338 -37.3766C344.274 -68.5324 386.532 -90.0974 429.034 -94.2969" stroke="url(#paint16_linear_282_6273)" stroke-opacity="0.23" stroke-miterlimit="10"/>
<path d="M-290.125 235.221C-277.194 215.557 -252.096 202.618 -225.437 198.901C-213.962 197.312 -202.141 197.312 -190.493 198.929C-175.448 201.029 -160.922 205.484 -146.536 210.138C-117.242 219.615 -88.8157 229.688 -58.8983 225.772C-35.4983 222.736 -12.341 220.267 9.60301 213.826C26.7977 208.804 38.9657 199.696 48.4297 187.892C52.555 182.699 56.195 177.024 59.5924 170.98C66.3177 159.006 72.2804 146.294 80.635 135.823C90.203 123.878 103.064 115.025 123.379 113.719C128.787 113.379 133.952 113.663 138.979 114.485C160.23 118.089 178.395 131.425 200.2 138.349C210.115 141.498 220.654 143.031 230.742 142.946C242.078 142.86 252.963 140.732 262.184 136.703C279.656 129.042 290.992 114.854 291.824 100.27C292.518 87.8414 286.139 76.2927 282.846 63.7794C275.912 37.9014 281.008 6.8591 296.574 -20.7782C300.907 -28.4962 306.038 -35.9304 312.035 -42.8823C339.179 -74.6339 382.928 -95.9719 426.955 -98.8945" stroke="url(#paint17_linear_282_6273)" stroke-opacity="0.23" stroke-miterlimit="10"/>
<path d="M-291.684 233.096C-278.268 213.574 -253.273 200.607 -226.58 196.833C-215.07 195.215 -203.214 195.215 -191.566 196.89C-176.521 199.046 -161.996 203.671 -147.644 208.608C-118.42 218.625 -90.0276 229.748 -59.8676 226.343C-36.2596 223.704 -12.7556 221.888 9.67376 215.986C27.3191 211.332 39.7298 202.394 49.4364 190.647C53.6658 185.511 57.4098 179.836 60.9111 173.792C67.8098 161.846 73.9458 149.106 82.5431 138.749C92.3538 126.917 105.458 118.234 126.258 117.496C131.735 117.298 136.97 117.752 141.996 118.773C163.351 123.086 181.17 137.103 202.975 144.027C212.924 147.205 223.532 148.595 233.724 148.255C245.164 147.886 256.154 145.361 265.34 140.792C282.743 132.138 293.49 116.503 293.282 100.84C293.108 87.5039 285.655 75.2743 281.322 62.1083C272.343 34.8966 276.191 2.691 291.375 -25.6273C295.604 -33.5439 300.735 -41.1484 306.767 -48.2705C334.188 -80.7032 379.428 -101.843 424.98 -103.488" stroke="url(#paint18_linear_282_6273)" stroke-opacity="0.23" stroke-miterlimit="10"/>
<path d="M-293.25 230.964C-279.383 211.556 -254.458 198.617 -227.73 194.758C-216.221 193.112 -204.33 193.083 -192.647 194.814C-177.602 197.028 -163.077 201.851 -148.759 207.044C-119.605 217.628 -91.2473 229.772 -60.8793 226.906C-37.0633 224.665 -13.2126 223.501 9.70203 218.11C27.798 213.826 40.4514 205.058 50.366 193.396C54.6994 188.288 58.5474 182.641 62.118 176.598C69.19 164.652 75.4994 151.911 84.3047 141.64C94.358 129.892 107.739 121.437 128.99 121.21C134.571 121.153 139.841 121.777 144.902 122.969C166.326 127.991 183.867 142.661 205.638 149.613C215.622 152.791 226.299 154.068 236.561 153.5C248.105 152.848 259.198 149.925 268.315 144.789C285.683 135.142 295.806 118.088 294.558 101.319C293.483 87.1028 284.955 74.1638 279.651 60.3736C268.627 31.8283 271.227 -1.51231 286.065 -30.5683C290.19 -38.6836 295.321 -46.4583 301.353 -53.7223C328.982 -86.8076 375.747 -107.72 422.825 -108.117" stroke="url(#paint19_linear_282_6273)" stroke-opacity="0.23" stroke-miterlimit="10"/>
<path d="M-294.844 228.867C-280.492 209.572 -255.67 196.633 -228.873 192.717C-217.329 191.043 -205.404 190.986 -193.721 192.774C-178.641 195.072 -164.185 200.038 -149.902 205.514C-120.782 216.666 -92.5291 229.803 -61.8837 227.477C-37.8597 225.661 -13.6277 225.178 9.70294 220.241C28.2496 216.382 41.1456 207.728 51.3029 196.122C55.7403 191.043 59.6576 185.425 63.3323 179.381C70.5776 167.463 77.0603 154.695 86.0736 144.508C96.3696 132.846 109.994 124.617 131.73 124.901C137.38 124.986 142.719 125.781 147.78 127.143C169.274 132.874 186.503 148.225 208.274 155.205C218.258 158.412 229.004 159.547 239.37 158.724C251.018 157.816 262.18 154.439 271.298 148.793C288.596 138.124 298.13 119.68 295.807 101.804C293.831 86.6798 284.228 73.0882 277.919 58.6453C264.85 28.7948 266.202 -5.70917 280.692 -35.5029C284.748 -43.8168 289.81 -51.7902 295.911 -59.1677C323.748 -92.9056 372.004 -113.591 420.607 -112.711" stroke="url(#paint20_linear_282_6273)" stroke-opacity="0.23" stroke-miterlimit="10"/>
<path d="M-296.402 226.738C-275.152 199.299 -233.725 184.601 -194.794 190.702C-148.965 197.881 -108.89 230.711 -62.853 228.015C-38.621 226.596 -14.0423 226.766 9.77369 222.34C37.0564 217.289 52.275 202.023 64.651 182.161C80.5631 156.652 92.9737 127.085 134.574 128.617C164.664 129.724 184.182 152.169 211.048 160.795C232.334 167.633 257.224 164.483 274.454 152.793C291.683 141.102 300.662 121.268 297.264 102.285C294.422 86.2818 283.744 71.9808 276.43 56.8853C257.086 16.9901 262.632 -30.2543 290.712 -64.6448C318.792 -99.0353 368.505 -119.522 418.667 -117.337" stroke="url(#paint21_linear_282_6273)" stroke-opacity="0.23" stroke-miterlimit="10"/>
<path d="M-293.941 230.654C-272.379 205.372 -231.195 191.695 -192.541 197.285C-173.197 200.066 -154.859 207.131 -136.763 213.97C-118.216 221.007 -99.9467 227.845 -80.8801 229.831C-74.7441 230.484 -68.5041 230.626 -62.1947 230.087C-38.4481 228.072 -14.4934 227.59 9.21862 223.021C36.0853 217.857 51.6159 203.216 64.4079 184.46C67.3546 180.147 70.1973 175.749 73.1093 171.407C81.6373 158.638 90.7199 146.551 105.107 139.826C113.149 136.08 122.821 133.952 134.851 134.293C164.56 135.116 183.973 155.631 210.008 163.008C213.475 163.973 217.011 164.682 220.581 165.136C238.365 167.35 257.189 163.15 270.917 153.276C287.419 141.415 295.947 121.779 292.861 102.995C290.261 87.0767 280.243 72.6906 273.517 57.5951C261.904 31.5469 260.587 2.51923 268.941 -23.8695C273.448 -37.9719 280.693 -51.2798 290.608 -63.027C308.669 -84.4785 335.259 -100.34 365.107 -108.711C382.267 -113.535 400.501 -115.805 418.771 -115.152" stroke="url(#paint22_linear_282_6273)" stroke-opacity="0.23" stroke-miterlimit="10"/>
<path d="M-291.484 234.597C-269.61 211.443 -228.668 198.817 -190.292 203.924C-171.018 206.478 -152.748 212.891 -134.826 218.963C-116.452 225.205 -98.5644 231.136 -79.8097 232.498C-73.7777 232.952 -67.6764 232.895 -61.5057 232.214C-38.279 229.632 -14.879 228.497 8.6943 223.73C35.1796 218.452 50.953 204.378 64.1956 186.757C67.2463 182.7 70.2276 178.585 73.209 174.528C82.0143 162.61 91.201 151.43 105.588 145.245C113.665 141.783 123.268 139.768 135.089 139.995C164.417 140.534 183.761 159.148 208.964 165.277C212.326 166.072 215.724 166.639 219.19 166.951C236.316 168.455 254.308 163.83 267.412 153.842C283.15 141.811 291.297 122.374 288.454 103.76C286.062 87.927 276.772 73.4842 270.636 58.3603C260.028 32.312 259.438 3.39789 268.244 -22.6787C273.028 -36.6676 280.516 -49.8052 290.569 -61.3539C308.908 -82.4365 335.532 -97.9576 365.414 -106.3C382.54 -111.095 400.705 -113.422 418.94 -112.911" stroke="url(#paint23_linear_282_6273)" stroke-opacity="0.23" stroke-miterlimit="10"/>
<path d="M-289.055 238.544C-266.868 217.546 -226.169 205.913 -188.036 210.538C-168.865 212.836 -150.665 218.625 -132.916 223.959C-114.716 229.407 -97.1747 234.458 -78.8013 235.167C-72.8733 235.394 -66.9453 235.167 -60.8787 234.344C-38.1373 231.166 -15.3613 229.35 8.07335 224.441C34.1427 218.993 50.228 205.572 63.852 189.058C67.0067 185.256 70.092 181.425 73.1773 177.651C82.26 166.613 91.5854 156.313 105.937 150.666C114.049 147.46 123.617 145.587 135.231 145.701C164.177 145.928 183.417 162.697 207.788 167.521C211.012 168.174 214.34 168.543 217.633 168.713C234.1 169.536 251.225 164.485 263.705 154.327C278.716 142.126 286.447 122.887 283.881 104.443C281.732 88.667 273.1 74.1957 267.553 59.0435C257.951 32.9669 257.985 4.22298 267.311 -21.5415C272.337 -35.4453 280.103 -48.3843 290.295 -59.7343C308.911 -80.4764 335.569 -95.6287 365.521 -103.971C382.612 -108.738 400.743 -111.093 418.908 -110.724" stroke="url(#paint24_linear_282_6273)" stroke-opacity="0.23" stroke-miterlimit="10"/>
<path d="M-286.594 242.487C-264.095 223.646 -223.639 213.034 -185.783 217.148C-166.682 219.191 -148.586 224.384 -131.01 228.924C-113.018 233.606 -95.7884 237.72 -77.7617 237.777C-71.9724 237.805 -66.1484 237.408 -60.2204 236.415C-37.9991 232.698 -15.7777 230.172 7.51826 225.122C33.1716 219.56 49.5689 206.735 63.6089 191.327C66.8676 187.78 70.0569 184.233 73.2463 180.772C82.6063 170.585 92.0703 161.193 106.388 156.057C114.534 153.134 124.068 151.432 135.473 151.375C164.038 151.262 183.209 166.158 206.713 169.734C209.833 170.216 213.022 170.443 216.212 170.471C232.02 170.585 248.313 165.109 260.169 154.837C274.417 142.465 281.697 123.426 279.444 105.181C277.502 89.4891 269.598 74.9327 264.641 59.7521C256.044 33.6755 256.772 5.04512 266.548 -20.3789C271.852 -34.1975 279.825 -46.9379 290.19 -58.1176C309.084 -78.4909 335.812 -93.3026 365.764 -101.617C382.82 -106.355 400.881 -108.767 419.012 -108.54" stroke="url(#paint25_linear_282_6273)" stroke-opacity="0.23" stroke-miterlimit="10"/>
<path d="M-284.125 246.429C-261.28 229.716 -221.136 220.154 -183.522 223.758C-164.525 225.545 -146.464 230.114 -129.061 233.887C-111.242 237.775 -94.3943 241.01 -76.6796 240.414C-70.9943 240.243 -65.309 239.648 -59.5543 238.513C-37.8183 234.228 -16.221 231.022 6.93637 225.801C32.1737 220.097 48.883 207.868 63.339 193.595C66.7017 190.275 70.0297 187.04 73.2884 183.862C82.891 174.527 92.4937 166.071 106.846 161.446C115.027 158.807 124.491 157.161 135.723 157.048C163.907 156.764 182.974 169.646 205.646 171.973C208.662 172.285 211.712 172.342 214.763 172.229C229.912 171.633 245.374 165.759 256.606 155.345C270.126 142.775 276.99 123.963 275.014 105.888C273.315 90.2815 266.07 75.6684 261.736 60.4594C254.179 34.3828 255.566 5.89427 265.792 -19.246C271.374 -32.9795 279.59 -45.5212 290.094 -56.5024C309.23 -76.5067 336.027 -90.9496 366.048 -99.2635C383.104 -103.974 401.062 -106.442 419.123 -106.357" stroke="url(#paint26_linear_282_6273)" stroke-opacity="0.23" stroke-miterlimit="10"/>
<path d="M-281.703 250.346C-258.546 235.79 -218.644 227.221 -181.274 230.37C-162.346 231.902 -144.388 235.847 -127.159 238.883C-109.514 242.004 -93.0124 244.302 -75.6791 243.082C-70.0978 242.685 -64.5511 241.947 -58.9351 240.642C-37.7191 235.761 -16.6764 231.902 6.34224 226.511C31.1636 220.694 48.1849 209.061 63.0569 195.895C66.5236 192.83 69.9556 189.879 73.3182 186.985C83.1982 178.529 92.9396 170.953 107.257 166.867C115.508 164.512 124.902 162.98 135.926 162.753C163.729 162.185 182.726 173.166 204.532 174.216C207.444 174.358 210.356 174.273 213.268 174.017C227.758 172.712 242.388 166.441 252.996 155.886C265.753 143.145 272.201 124.56 270.502 106.627C269.012 91.1057 262.46 76.4075 258.716 61.1985C252.164 35.1218 254.244 6.77519 264.921 -18.0529C270.78 -31.6729 279.238 -44.0444 289.916 -54.8269C309.329 -74.4908 336.161 -88.5648 366.217 -96.8503C383.238 -101.561 401.161 -104.058 419.153 -104.086" stroke="url(#paint27_linear_282_6273)" stroke-opacity="0.23" stroke-miterlimit="10"/>
<path d="M-279.246 254.292C-255.777 241.864 -216.118 234.344 -179.025 236.983C-160.201 238.26 -142.278 241.58 -125.257 243.85C-107.785 246.177 -91.6648 247.567 -74.6434 245.723C-69.2008 245.127 -63.7581 244.19 -58.2808 242.772C-37.5501 237.324 -17.1314 232.784 5.74859 227.222C30.1886 221.292 47.4873 210.254 62.7753 198.223C66.3459 195.414 69.8819 192.718 73.3486 190.136C83.4713 182.532 93.3859 175.892 107.669 172.317C115.954 170.245 125.314 168.826 136.095 168.486C163.517 167.635 182.445 176.715 203.383 176.488C206.191 176.459 208.999 176.204 211.773 175.807C225.57 173.792 239.402 167.096 249.386 156.427C261.415 143.516 267.447 125.129 266.026 107.395C264.778 91.9585 258.954 77.2036 255.765 61.9662C250.287 35.8612 253.026 7.65642 264.119 -16.8312C270.255 -30.3661 278.922 -42.539 289.773 -53.1512C309.463 -72.4462 336.365 -86.1797 366.455 -94.4652C383.442 -99.1471 401.295 -101.672 419.253 -101.871" stroke="url(#paint28_linear_282_6273)" stroke-opacity="0.23" stroke-miterlimit="10"/>
<path d="M-276.781 258.235C-253 247.963 -213.584 241.522 -176.768 243.593C-158.013 244.643 -140.195 247.339 -123.312 248.814C-106.048 250.347 -90.2399 250.829 -73.5652 248.36C-68.2266 247.566 -62.9226 246.459 -57.5839 244.87C-37.3386 238.855 -17.5092 233.662 5.23211 227.93C29.2561 221.886 46.9015 211.444 62.5361 200.52C66.2108 197.966 69.8508 195.554 73.4214 193.256C83.7868 186.531 93.8748 180.771 108.123 177.707C116.443 175.919 125.733 174.585 136.341 174.16C163.381 173.025 182.24 180.204 202.312 178.728C204.981 178.529 207.685 178.132 210.32 177.593C223.459 174.869 236.424 167.775 245.819 156.936C257.085 143.855 262.736 125.667 261.557 108.103C260.517 92.7234 255.387 77.94 252.787 62.6743C248.315 36.5693 251.747 8.50639 263.325 -15.6975C269.739 -29.1472 278.648 -41.1215 289.637 -51.5351C309.605 -70.4896 336.541 -83.8542 366.667 -92.1114C383.619 -96.7649 401.403 -99.347 419.325 -99.6875" stroke="url(#paint29_linear_282_6273)" stroke-opacity="0.23" stroke-miterlimit="10"/>
<path d="M-274.352 262.177C-250.258 254.033 -211.12 248.642 -174.512 250.202C-155.861 250.997 -138.077 253.068 -121.402 253.778C-104.312 254.544 -88.8849 254.118 -72.5569 250.997C-67.3222 250.004 -62.1569 248.698 -56.9569 246.968C-37.2315 240.356 -17.9915 234.511 4.64581 228.609C28.2538 222.452 46.2112 212.577 62.2618 202.788C66.0405 200.489 69.8192 198.361 73.4592 196.347C84.0672 190.473 94.3285 185.649 108.576 183.095C116.931 181.592 126.187 180.371 136.587 179.832C163.246 178.414 182.035 183.663 201.275 180.939C203.841 180.57 206.406 180.003 208.937 179.322C221.417 175.888 233.55 168.369 242.321 157.416C252.859 144.165 258.059 126.175 257.193 108.81C256.395 93.5156 251.958 78.6471 249.947 63.3529C246.481 37.2479 250.641 9.32695 262.635 -14.5648C269.326 -27.9011 278.478 -39.7051 289.606 -49.9201C309.817 -68.5057 336.822 -81.5298 367.017 -89.7586C383.934 -94.3837 401.683 -97.0226 419.537 -97.4766" stroke="url(#paint30_linear_282_6273)" stroke-opacity="0.23" stroke-miterlimit="10"/>
<path d="M-271.891 266.124C-247.485 260.137 -208.589 255.739 -172.259 256.817C-153.677 257.357 -135.997 258.804 -119.496 258.775C-102.579 258.747 -87.4986 257.442 -71.5173 253.639C-66.4213 252.419 -61.3599 250.944 -56.2986 249.071C-37.0586 241.892 -18.4079 235.394 4.05606 229.294C27.2827 223.023 45.5521 213.744 61.9841 205.061C65.8667 203.018 69.7494 201.174 73.4934 199.443C84.3441 194.421 94.7788 190.533 108.992 188.49C117.416 187.27 126.568 186.164 136.795 185.511C163.072 183.809 181.792 187.157 200.165 183.156C202.627 182.617 205.053 181.907 207.445 181.084C219.267 176.942 230.568 169.025 238.715 157.93C248.491 144.509 253.309 126.718 252.685 109.523C252.131 94.3137 248.352 79.3885 246.931 64.066C244.504 37.961 249.323 10.1535 261.768 -13.3978C268.771 -26.6489 278.096 -38.2543 289.397 -48.299C309.885 -66.5158 336.925 -79.1994 367.155 -87.4282C384.037 -92.0249 401.717 -94.6922 419.501 -95.3164" stroke="url(#paint31_linear_282_6273)" stroke-opacity="0.23" stroke-miterlimit="10"/>
<path d="M-269.43 270.039C-244.712 266.208 -206.059 262.832 -170.006 263.427C-151.528 263.74 -133.918 264.534 -117.555 263.74C-100.846 262.945 -86.1123 260.703 -70.443 256.277C-65.451 254.858 -60.5283 253.212 -55.6403 251.169C-36.9203 243.395 -18.8243 236.244 3.501 230.002C26.3117 223.617 44.9277 214.935 61.741 207.358C65.7277 205.571 69.7143 204.01 73.5623 202.563C84.6557 198.42 95.2637 195.441 109.442 193.88C117.901 192.944 127.018 191.951 137.002 191.185C162.898 189.17 181.549 190.617 199.056 185.396C201.413 184.687 203.736 183.807 205.954 182.842C217.117 177.99 227.586 169.676 235.074 158.44C244.122 144.848 248.525 127.256 248.178 110.231C247.866 95.107 244.781 80.125 243.949 64.7741C242.528 38.6691 248.074 11.0034 260.936 -12.2641C268.216 -25.4017 277.784 -36.8368 289.224 -46.6829C309.989 -64.5592 337.098 -76.8739 367.362 -85.0743C384.21 -89.6427 401.856 -92.3667 419.57 -93.1328" stroke="url(#paint32_linear_282_6273)" stroke-opacity="0.23" stroke-miterlimit="10"/>
<path d="M-267 273.981C-241.936 272.278 -203.56 269.951 -167.749 270.037C-149.341 270.093 -131.8 270.292 -115.645 268.703C-99.1093 267.114 -84.7227 263.993 -69.4347 258.914C-64.5467 257.296 -59.7627 255.452 -55.0133 253.267C-36.7786 244.925 -19.3066 237.122 2.88002 230.68C25.3094 224.183 44.2373 216.124 61.432 209.626C65.5227 208.094 69.6133 206.817 73.5653 205.654C84.9013 202.362 95.6827 200.319 109.827 199.269C118.32 198.645 127.403 197.709 137.179 196.829C162.693 194.531 181.275 194.048 197.915 187.579C200.168 186.699 202.352 185.678 204.467 184.571C214.971 179.01 224.573 170.27 231.472 158.892C239.757 145.13 243.779 127.736 243.675 110.91C243.605 95.8424 241.179 80.8037 240.936 65.4528C240.52 39.3478 246.795 11.824 260.072 -11.1314C267.629 -24.1839 277.44 -35.4204 289.053 -45.0679C310.096 -62.5752 337.24 -74.5211 367.539 -82.7215C384.352 -87.2899 401.928 -90.0422 419.608 -90.9219" stroke="url(#paint33_linear_282_6273)" stroke-opacity="0.23" stroke-miterlimit="10"/>
<path d="M-264.539 277.928C-239.163 278.382 -201.03 277.049 -165.496 276.651C-147.192 276.453 -129.72 276.027 -113.739 273.7C-97.3764 271.317 -83.3364 267.288 -68.395 261.584C-63.6457 259.768 -58.9657 257.725 -54.355 255.399C-36.6404 246.46 -19.723 238.033 2.32498 231.393C24.3383 224.782 43.6477 217.319 61.1543 211.956C65.3837 210.68 69.5436 209.686 73.5996 208.835C85.1783 206.395 96.1676 205.317 110.277 204.749C118.84 204.409 127.818 203.586 137.421 202.593C162.589 200.011 181.066 197.599 196.84 189.881C198.989 188.831 201.034 187.639 203.01 186.391C212.856 180.12 221.626 170.983 227.901 159.463C235.458 145.53 239.064 128.335 239.237 111.679C239.376 96.6971 237.677 81.6016 238.024 66.2224C238.613 40.089 245.581 12.7355 259.309 -9.9078C267.144 -22.8752 277.162 -33.913 288.949 -43.3619C310.234 -60.5004 337.448 -72.1058 367.816 -80.2778C384.629 -84.8178 402.101 -87.6269 419.746 -88.6484" stroke="url(#paint34_linear_282_6273)" stroke-opacity="0.23" stroke-miterlimit="10"/>
<path d="M-262.082 281.869C-236.394 284.451 -198.503 284.168 -163.247 283.26C-145.013 282.806 -127.61 281.756 -111.802 278.663C-95.6127 275.513 -81.954 270.576 -67.3247 264.22C-62.6794 262.205 -58.138 259.964 -53.666 257.495C-36.4367 247.961 -20.1434 238.881 1.76598 232.1C23.398 225.375 43.0193 218.536 60.9073 214.252C65.2406 213.23 69.5047 212.521 73.6647 211.953C85.486 210.336 96.6487 209.91 110.723 210.137C119.321 210.279 128.265 209.371 137.659 208.265C162.446 205.37 180.854 201.057 195.761 192.091C197.806 190.871 199.713 189.537 201.585 188.147C210.771 181.166 218.71 171.604 224.361 159.97C231.155 145.868 234.379 128.871 234.795 112.385C235.177 97.4885 234.137 82.3362 235.073 66.9002C236.667 40.7668 244.363 13.5552 258.542 -8.8043C266.689 -21.6582 276.915 -32.5258 288.841 -41.8044C310.403 -58.6024 337.686 -69.8389 368.054 -78.0109C384.833 -82.5226 402.27 -85.3601 419.846 -86.5234" stroke="url(#paint35_linear_282_6273)" stroke-opacity="0.23" stroke-miterlimit="10"/>
<path d="M-259.656 285.788C-233.656 290.526 -196.043 291.179 -160.995 289.845C-142.864 289.107 -125.531 287.49 -109.896 283.603C-93.9149 279.659 -80.5683 273.842 -66.3203 266.805C-61.7789 264.563 -57.3762 262.18 -53.0429 259.541C-36.3336 249.439 -20.5949 239.707 1.17576 232.726C22.3918 225.916 42.3598 219.645 60.6291 216.467C65.0665 215.701 69.4344 215.247 73.6984 214.992C85.7278 214.226 97.0984 215.077 111.138 215.474C119.805 215.73 128.645 215.105 137.832 213.885C162.237 210.707 180.576 204.465 194.65 194.278C196.557 192.888 198.394 191.384 200.093 189.852C208.621 182.162 215.728 172.202 220.754 160.427C226.821 146.154 229.594 129.356 230.288 113.069C230.912 98.2572 230.496 83.0198 232.09 67.5838C234.621 41.4505 243.114 14.3807 257.709 -7.66668C266.133 -20.4354 276.602 -31.1044 288.666 -40.1844C310.506 -56.6136 337.824 -67.5096 368.261 -75.6532C385.005 -80.1364 402.373 -83.0307 419.88 -84.3359" stroke="url(#paint36_linear_282_6273)" stroke-opacity="0.23" stroke-miterlimit="10"/>
<path d="M-257.195 289.732C-230.883 296.627 -193.513 298.302 -158.742 296.486C-140.681 295.492 -123.451 293.251 -107.99 288.626C-92.182 283.915 -79.2166 277.162 -65.2806 269.501C-60.878 267.061 -56.614 264.479 -52.3846 261.698C-36.1606 251 -21.0113 240.644 0.620712 233.465C21.4554 226.541 41.7354 220.923 60.386 218.795C64.9274 218.284 69.3994 218.171 73.7674 218.142C86.0394 218.029 97.5834 220.015 111.589 220.923C120.29 221.462 129.095 220.923 138.074 219.618C162.098 216.128 180.333 207.956 193.575 196.549C195.378 194.988 197.077 193.342 198.637 191.668C206.506 183.269 212.781 172.884 217.183 160.995C222.487 146.552 224.879 129.953 225.85 113.836C226.717 99.0806 226.994 83.8149 229.143 68.3505C232.714 42.2171 241.901 15.2893 256.911 -6.47437C265.647 -19.1296 276.29 -29.6284 288.527 -38.5097C310.61 -54.57 337.997 -65.1255 368.469 -73.2408C385.178 -77.6956 402.477 -80.6466 419.949 -82.0937" stroke="url(#paint37_linear_282_6273)" stroke-opacity="0.23" stroke-miterlimit="10"/>
<path d="M-254.734 293.673C-228.11 302.697 -190.982 305.421 -156.489 303.094C-138.532 301.845 -121.337 298.979 -106.049 293.588C-90.4144 288.083 -77.761 280.479 -64.2063 272.137C-59.9077 269.498 -55.7823 266.717 -51.7263 263.794C-36.0223 252.501 -21.4277 241.52 0.0309867 234.143C20.4497 227.134 41.0763 222.112 60.1083 221.062C64.7537 220.806 69.3297 220.92 73.8017 221.232C86.3163 222.14 98.0337 224.921 112.004 226.283C120.74 227.134 129.511 226.68 138.282 225.261C161.924 221.459 180.055 211.386 192.466 198.731C194.164 197 195.724 195.184 197.18 193.368C204.356 184.259 209.799 173.477 213.612 161.417C218.188 146.776 220.164 130.404 221.378 114.457C222.487 99.7869 223.423 84.4644 226.196 68.9716C230.772 42.8383 240.687 16.0523 256.114 -5.39925C265.127 -17.941 276.012 -28.2979 288.388 -36.9806C310.748 -52.7004 338.17 -62.887 368.711 -70.9739C385.386 -75.4004 402.65 -78.3797 420.052 -79.9687" stroke="url(#paint38_linear_282_6273)" stroke-opacity="0.23" stroke-miterlimit="10"/>
<path d="M-252.305 297.62C-225.369 308.8 -188.483 312.517 -154.233 309.708C-136.345 308.204 -119.254 304.714 -104.139 298.556C-88.7127 292.285 -76.406 283.744 -63.1633 274.778C-58.9687 271.94 -54.982 268.961 -51.0647 265.897C-35.9153 253.979 -21.8407 242.43 -0.520651 234.854C19.5167 227.732 40.4553 223.135 59.834 223.391C64.618 223.448 69.298 223.76 73.874 224.384C86.6313 226.115 98.522 229.889 112.493 231.733C121.263 232.896 129.965 232.499 138.562 230.995C161.823 226.909 179.885 214.907 191.429 201.031C193.023 199.13 194.445 197.172 195.762 195.214C202.279 185.397 206.89 174.217 210.079 162.016C213.893 147.204 215.522 131.03 216.978 115.282C218.33 100.697 219.959 85.2897 223.322 69.7969C228.903 43.6352 239.581 17.0194 255.389 -4.11996C264.714 -16.5766 275.807 -26.7348 288.322 -35.219C310.959 -50.5698 338.45 -60.416 368.991 -68.5028C385.631 -72.901 402.826 -75.9371 420.194 -77.668" stroke="url(#paint39_linear_282_6273)" stroke-opacity="0.23" stroke-miterlimit="10"/>
<path d="M-249.844 301.564C-222.561 314.872 -185.953 319.639 -151.98 316.319C-134.196 314.559 -117.14 310.473 -102.198 303.55C-86.9451 296.485 -74.9851 287.064 -62.1237 277.445C-58.0331 274.409 -54.1851 271.259 -50.4064 268.024C-35.7424 255.539 -22.2571 243.338 -1.1104 235.563C18.5456 228.356 39.7963 224.582 59.5563 225.689C64.4443 225.973 69.2283 226.597 73.9083 227.505C86.9429 230.059 98.9376 234.826 112.908 237.152C121.714 238.628 130.38 238.316 138.735 236.698C161.615 232.3 179.572 218.397 190.284 203.273C191.775 201.201 193.092 199.073 194.271 196.973C200.13 186.446 203.908 174.841 206.439 162.526C209.524 147.544 210.738 131.569 212.436 115.991C214.066 101.492 216.319 86.0272 220.271 70.4777C226.858 44.3159 238.298 17.8704 254.487 -3.01359C264.124 -15.3567 275.391 -25.3447 288.114 -33.6302C311.028 -48.6406 338.554 -58.0895 369.164 -66.1763C385.77 -70.5745 402.93 -73.639 420.194 -75.5117" stroke="url(#paint40_linear_282_6273)" stroke-opacity="0.23" stroke-miterlimit="10"/>
<path d="M-247.383 305.477C-219.788 320.942 -183.457 326.73 -149.727 322.928C-132.012 320.913 -115.06 316.203 -100.292 308.513C-85.2121 300.653 -73.5988 290.353 -61.0841 280.053C-57.1321 276.818 -53.3881 273.47 -49.7481 270.122C-35.6041 257.041 -22.6734 244.244 -1.66544 236.242C17.6092 228.95 39.1372 225.8 59.3132 227.957C64.3052 228.496 69.1933 229.375 73.9773 230.595C87.2546 233.972 99.4226 239.732 113.359 242.541C122.233 244.329 130.796 244.074 138.977 242.371C161.441 237.632 179.295 221.828 189.209 205.484C190.561 203.242 191.775 200.972 192.815 198.73C198.015 187.494 200.961 175.491 202.868 163.035C205.191 147.882 206.023 132.106 207.999 116.698C209.871 102.284 212.817 86.7626 217.359 71.1847C224.951 45.023 237.119 18.7194 253.759 -1.85252C263.708 -14.0821 275.183 -23.8999 288.044 -32.0151C311.201 -46.6566 338.796 -55.765 369.441 -63.8235C386.047 -68.1933 403.103 -71.3145 420.332 -73.3008" stroke="url(#paint41_linear_282_6273)" stroke-opacity="0.23" stroke-miterlimit="10"/>
<path d="M-244.922 309.424C-202.317 336.295 -140.645 337.998 -98.3512 313.482C-83.4792 304.856 -72.2125 293.619 -60.0099 282.695C-41.1859 265.812 -28.4285 247.197 -2.22053 236.926C21.3181 227.704 49.5021 226.03 74.0115 233.719C87.5315 237.947 99.8728 244.672 113.774 247.935C150.729 256.59 181.478 226.455 191.358 200.492C201.411 174.047 199.47 145.161 203.561 117.41C209.211 78.9621 225.713 31.6326 252.961 -0.686521C281.595 -34.6798 321.982 -48.9524 369.649 -61.4658C386.219 -65.8072 403.206 -68.9568 420.401 -71.1133" stroke="url(#paint42_linear_282_6273)" stroke-opacity="0.23" stroke-miterlimit="10"/>
</g>
<defs>
<linearGradient id="paint0_linear_282_6273" x1="99.2823" y1="-20.6367" x2="99.2823" y2="271.285" gradientUnits="userSpaceOnUse">
<stop offset="0.4" stop-color="#D4E8F7"/>
<stop offset="0.9" stop-color="#C800AD" stop-opacity="0"/>
</linearGradient>
<linearGradient id="paint1_linear_282_6273" x1="97.4676" y1="-25.2031" x2="97.4676" y2="269.188" gradientUnits="userSpaceOnUse">
<stop offset="0.4" stop-color="#D4E8F7"/>
<stop offset="0.9" stop-color="#C800AD" stop-opacity="0"/>
</linearGradient>
<linearGradient id="paint2_linear_282_6273" x1="95.6798" y1="-29.8867" x2="95.6798" y2="267.058" gradientUnits="userSpaceOnUse">
<stop offset="0.4" stop-color="#D4E8F7"/>
<stop offset="0.9" stop-color="#C800AD" stop-opacity="0"/>
</linearGradient>
<linearGradient id="paint3_linear_282_6273" x1="93.84" y1="-34.5117" x2="93.84" y2="264.93" gradientUnits="userSpaceOnUse">
<stop offset="0.4" stop-color="#D4E8F7"/>
<stop offset="0.9" stop-color="#C800AD" stop-opacity="0"/>
</linearGradient>
<linearGradient id="paint4_linear_282_6273" x1="92.0079" y1="-39.0508" x2="92.0079" y2="262.802" gradientUnits="userSpaceOnUse">
<stop offset="0.4" stop-color="#D4E8F7"/>
<stop offset="0.9" stop-color="#C800AD" stop-opacity="0"/>
</linearGradient>
<linearGradient id="paint5_linear_282_6273" x1="90.2201" y1="-43.6172" x2="90.2201" y2="260.676" gradientUnits="userSpaceOnUse">
<stop offset="0.4" stop-color="#D4E8F7"/>
<stop offset="0.9" stop-color="#C800AD" stop-opacity="0"/>
</linearGradient>
<linearGradient id="paint6_linear_282_6273" x1="82.9384" y1="-43.8477" x2="82.9384" y2="263" gradientUnits="userSpaceOnUse">
<stop offset="0.4" stop-color="#D4E8F7"/>
<stop offset="0.9" stop-color="#C800AD" stop-opacity="0"/>
</linearGradient>
<linearGradient id="paint7_linear_282_6273" x1="86.5612" y1="-52.8984" x2="86.5612" y2="256.446" gradientUnits="userSpaceOnUse">
<stop offset="0.4" stop-color="#D4E8F7"/>
<stop offset="0.9" stop-color="#C800AD" stop-opacity="0"/>
</linearGradient>
<linearGradient id="paint8_linear_282_6273" x1="84.756" y1="-57.4648" x2="84.756" y2="254.32" gradientUnits="userSpaceOnUse">
<stop offset="0.4" stop-color="#D4E8F7"/>
<stop offset="0.9" stop-color="#C800AD" stop-opacity="0"/>
</linearGradient>
<linearGradient id="paint9_linear_282_6273" x1="82.9374" y1="-62.0898" x2="82.9374" y2="252.192" gradientUnits="userSpaceOnUse">
<stop offset="0.4" stop-color="#D4E8F7"/>
<stop offset="0.9" stop-color="#C800AD" stop-opacity="0"/>
</linearGradient>
<linearGradient id="paint10_linear_282_6273" x1="81.1015" y1="-66.7148" x2="81.1015" y2="250.064" gradientUnits="userSpaceOnUse">
<stop offset="0.4" stop-color="#D4E8F7"/>
<stop offset="0.9" stop-color="#C800AD" stop-opacity="0"/>
</linearGradient>
<linearGradient id="paint11_linear_282_6273" x1="79.3483" y1="-71.2266" x2="79.3483" y2="247.964" gradientUnits="userSpaceOnUse">
<stop offset="0.4" stop-color="#D4E8F7"/>
<stop offset="0.9" stop-color="#C800AD" stop-opacity="0"/>
</linearGradient>
<linearGradient id="paint12_linear_282_6273" x1="77.5124" y1="-75.8242" x2="77.5124" y2="245.835" gradientUnits="userSpaceOnUse">
<stop offset="0.4" stop-color="#D4E8F7"/>
<stop offset="0.9" stop-color="#C800AD" stop-opacity="0"/>
</linearGradient>
<linearGradient id="paint13_linear_282_6273" x1="75.6972" y1="-80.4766" x2="75.6972" y2="243.708" gradientUnits="userSpaceOnUse">
<stop offset="0.4" stop-color="#D4E8F7"/>
<stop offset="0.9" stop-color="#C800AD" stop-opacity="0"/>
</linearGradient>
<linearGradient id="paint14_linear_282_6273" x1="73.8401" y1="-85.1016" x2="73.8401" y2="241.58" gradientUnits="userSpaceOnUse">
<stop offset="0.4" stop-color="#D4E8F7"/>
<stop offset="0.9" stop-color="#C800AD" stop-opacity="0"/>
</linearGradient>
<linearGradient id="paint15_linear_282_6273" x1="72.0388" y1="-89.6133" x2="72.0388" y2="239.452" gradientUnits="userSpaceOnUse">
<stop offset="0.4" stop-color="#D4E8F7"/>
<stop offset="0.9" stop-color="#C800AD" stop-opacity="0"/>
</linearGradient>
<linearGradient id="paint16_linear_282_6273" x1="70.2336" y1="-94.2969" x2="70.2336" y2="237.35" gradientUnits="userSpaceOnUse">
<stop offset="0.4" stop-color="#D4E8F7"/>
<stop offset="0.9" stop-color="#C800AD" stop-opacity="0"/>
</linearGradient>
<linearGradient id="paint17_linear_282_6273" x1="68.415" y1="-98.8945" x2="68.415" y2="235.221" gradientUnits="userSpaceOnUse">
<stop offset="0.4" stop-color="#D4E8F7"/>
<stop offset="0.9" stop-color="#C800AD" stop-opacity="0"/>
</linearGradient>
<linearGradient id="paint18_linear_282_6273" x1="66.6484" y1="-103.488" x2="66.6484" y2="233.096" gradientUnits="userSpaceOnUse">
<stop offset="0.4" stop-color="#D4E8F7"/>
<stop offset="0.9" stop-color="#C800AD" stop-opacity="0"/>
</linearGradient>
<linearGradient id="paint19_linear_282_6273" x1="64.7874" y1="-108.117" x2="64.7874" y2="230.964" gradientUnits="userSpaceOnUse">
<stop offset="0.4" stop-color="#D4E8F7"/>
<stop offset="0.9" stop-color="#C800AD" stop-opacity="0"/>
</linearGradient>
<linearGradient id="paint20_linear_282_6273" x1="62.8816" y1="-112.738" x2="62.8816" y2="228.867" gradientUnits="userSpaceOnUse">
<stop offset="0.4" stop-color="#D4E8F7"/>
<stop offset="0.9" stop-color="#C800AD" stop-opacity="0"/>
</linearGradient>
<linearGradient id="paint21_linear_282_6273" x1="61.1324" y1="-117.496" x2="61.1324" y2="228.172" gradientUnits="userSpaceOnUse">
<stop offset="0.4" stop-color="#D4E8F7"/>
<stop offset="0.9" stop-color="#C800AD" stop-opacity="0"/>
</linearGradient>
<linearGradient id="paint22_linear_282_6273" x1="62.4146" y1="-115.262" x2="62.4146" y2="230.654" gradientUnits="userSpaceOnUse">
<stop offset="0.4" stop-color="#D4E8F7"/>
<stop offset="0.9" stop-color="#C800AD" stop-opacity="0"/>
</linearGradient>
<linearGradient id="paint23_linear_282_6273" x1="63.7276" y1="-112.98" x2="63.7276" y2="234.597" gradientUnits="userSpaceOnUse">
<stop offset="0.4" stop-color="#D4E8F7"/>
<stop offset="0.9" stop-color="#C800AD" stop-opacity="0"/>
</linearGradient>
<linearGradient id="paint24_linear_282_6273" x1="64.9267" y1="-110.762" x2="64.9267" y2="238.544" gradientUnits="userSpaceOnUse">
<stop offset="0.4" stop-color="#D4E8F7"/>
<stop offset="0.9" stop-color="#C800AD" stop-opacity="0"/>
</linearGradient>
<linearGradient id="paint25_linear_282_6273" x1="66.209" y1="-108.555" x2="66.209" y2="242.487" gradientUnits="userSpaceOnUse">
<stop offset="0.4" stop-color="#D4E8F7"/>
<stop offset="0.9" stop-color="#C800AD" stop-opacity="0"/>
</linearGradient>
<linearGradient id="paint26_linear_282_6273" x1="67.499" y1="-106.359" x2="67.499" y2="246.429" gradientUnits="userSpaceOnUse">
<stop offset="0.4" stop-color="#D4E8F7"/>
<stop offset="0.9" stop-color="#C800AD" stop-opacity="0"/>
</linearGradient>
<linearGradient id="paint27_linear_282_6273" x1="68.7249" y1="-104.086" x2="68.7249" y2="250.346" gradientUnits="userSpaceOnUse">
<stop offset="0.4" stop-color="#D4E8F7"/>
<stop offset="0.9" stop-color="#C800AD" stop-opacity="0"/>
</linearGradient>
<linearGradient id="paint28_linear_282_6273" x1="70.0033" y1="-101.871" x2="70.0033" y2="254.292" gradientUnits="userSpaceOnUse">
<stop offset="0.4" stop-color="#D4E8F7"/>
<stop offset="0.9" stop-color="#C800AD" stop-opacity="0"/>
</linearGradient>
<linearGradient id="paint29_linear_282_6273" x1="71.2721" y1="-99.6875" x2="71.2721" y2="258.235" gradientUnits="userSpaceOnUse">
<stop offset="0.4" stop-color="#D4E8F7"/>
<stop offset="0.9" stop-color="#C800AD" stop-opacity="0"/>
</linearGradient>
<linearGradient id="paint30_linear_282_6273" x1="72.5925" y1="-97.4766" x2="72.5925" y2="262.177" gradientUnits="userSpaceOnUse">
<stop offset="0.4" stop-color="#D4E8F7"/>
<stop offset="0.9" stop-color="#C800AD" stop-opacity="0"/>
</linearGradient>
<linearGradient id="paint31_linear_282_6273" x1="73.8054" y1="-95.3164" x2="73.8054" y2="266.124" gradientUnits="userSpaceOnUse">
<stop offset="0.4" stop-color="#D4E8F7"/>
<stop offset="0.9" stop-color="#C800AD" stop-opacity="0"/>
</linearGradient>
<linearGradient id="paint32_linear_282_6273" x1="75.0703" y1="-93.1328" x2="75.0703" y2="270.039" gradientUnits="userSpaceOnUse">
<stop offset="0.4" stop-color="#D4E8F7"/>
<stop offset="0.9" stop-color="#C800AD" stop-opacity="0"/>
</linearGradient>
<linearGradient id="paint33_linear_282_6273" x1="76.304" y1="-90.9219" x2="76.304" y2="273.981" gradientUnits="userSpaceOnUse">
<stop offset="0.4" stop-color="#D4E8F7"/>
<stop offset="0.9" stop-color="#C800AD" stop-opacity="0"/>
</linearGradient>
<linearGradient id="paint34_linear_282_6273" x1="77.6036" y1="-88.6484" x2="77.6036" y2="278.021" gradientUnits="userSpaceOnUse">
<stop offset="0.4" stop-color="#D4E8F7"/>
<stop offset="0.9" stop-color="#C800AD" stop-opacity="0"/>
</linearGradient>
<linearGradient id="paint35_linear_282_6273" x1="78.882" y1="-86.5234" x2="78.882" y2="283.907" gradientUnits="userSpaceOnUse">
<stop offset="0.4" stop-color="#D4E8F7"/>
<stop offset="0.9" stop-color="#C800AD" stop-opacity="0"/>
</linearGradient>
<linearGradient id="paint36_linear_282_6273" x1="80.1118" y1="-84.3359" x2="80.1118" y2="290.453" gradientUnits="userSpaceOnUse">
<stop offset="0.4" stop-color="#D4E8F7"/>
<stop offset="0.9" stop-color="#C800AD" stop-opacity="0"/>
</linearGradient>
<linearGradient id="paint37_linear_282_6273" x1="81.3767" y1="-82.0937" x2="81.3767" y2="297.166" gradientUnits="userSpaceOnUse">
<stop offset="0.4" stop-color="#D4E8F7"/>
<stop offset="0.9" stop-color="#C800AD" stop-opacity="0"/>
</linearGradient>
<linearGradient id="paint38_linear_282_6273" x1="82.659" y1="-79.9687" x2="82.659" y2="303.883" gradientUnits="userSpaceOnUse">
<stop offset="0.4" stop-color="#D4E8F7"/>
<stop offset="0.9" stop-color="#C800AD" stop-opacity="0"/>
</linearGradient>
<linearGradient id="paint39_linear_282_6273" x1="83.9447" y1="-77.668" x2="83.9447" y2="310.605" gradientUnits="userSpaceOnUse">
<stop offset="0.4" stop-color="#D4E8F7"/>
<stop offset="0.9" stop-color="#C800AD" stop-opacity="0"/>
</linearGradient>
<linearGradient id="paint40_linear_282_6273" x1="85.175" y1="-75.5117" x2="85.175" y2="317.337" gradientUnits="userSpaceOnUse">
<stop offset="0.4" stop-color="#D4E8F7"/>
<stop offset="0.9" stop-color="#C800AD" stop-opacity="0"/>
</linearGradient>
<linearGradient id="paint41_linear_282_6273" x1="86.4745" y1="-73.3008" x2="86.4745" y2="324.058" gradientUnits="userSpaceOnUse">
<stop offset="0.4" stop-color="#D4E8F7"/>
<stop offset="0.9" stop-color="#C800AD" stop-opacity="0"/>
</linearGradient>
<linearGradient id="paint42_linear_282_6273" x1="87.7395" y1="-71.1133" x2="87.7395" y2="330.783" gradientUnits="userSpaceOnUse">
<stop offset="0.4" stop-color="#D4E8F7"/>
<stop offset="0.9" stop-color="#C800AD" stop-opacity="0"/>
</linearGradient>
</defs>
</svg>
