<svg width="75" height="65" viewBox="0 0 75 65" fill="none" xmlns="http://www.w3.org/2000/svg">
<path d="M62.8124 22.7541L57.1874 28.3791V15H31.8749V29.0625H17.8124V60H57.1874V52.2459L62.8124 46.6209V62.835C62.8117 63.5752 62.5171 64.2849 61.9935 64.808C61.4698 65.3311 60.7598 65.625 60.0196 65.625H14.9803C14.6109 65.6224 14.2457 65.5471 13.9055 65.4034C13.5652 65.2597 13.2566 65.0503 12.9973 64.7873C12.7379 64.5243 12.5329 64.2128 12.394 63.8706C12.255 63.5284 12.1849 63.1622 12.1874 62.7928V26.25L29.0709 9.375H59.9943C61.5468 9.375 62.8124 10.6547 62.8124 12.165V22.7541ZM65.0006 28.5197L68.9774 32.4994L47.1018 54.375L43.1193 54.3694L43.1249 50.3981L65.0006 28.5225V28.5197Z" fill="url(#paint0_linear_282_6346)"/>
<defs>
<linearGradient id="paint0_linear_282_6346" x1="42.7587" y1="9.375" x2="42.7587" y2="65.625" gradientUnits="userSpaceOnUse">
<stop stop-color="#A8E0C9"/>
<stop offset="0.95343" stop-color="white"/>
</linearGradient>
</defs>
</svg>
