<svg width="24" height="24" viewBox="0 0 24 24" fill="none" xmlns="http://www.w3.org/2000/svg">
<path d="M3.75 17.6699C3.75 18.2666 4.23748 18.7499 4.83811 18.7499H4.85375C4.24393 18.7499 3.75 18.2666 3.75 17.6699Z" fill="#FBBC05"/>
<path d="M13.1011 9.29998V12.1197L16.9026 9.05338V6.32999C16.9026 5.7333 16.4151 5.25 15.8144 5.25H7.57865L7.57129 9.29998H13.1011Z" fill="#FBBC05"/>
<path d="M13.1001 14.9408H7.56113L7.55469 18.7505H15.8135C16.415 18.7505 16.9016 18.2672 16.9016 17.6705V15.2117L13.1001 12.1211V14.9408Z" fill="#34A853"/>
<path d="M7.57816 5.25L3.75 9.29998H7.57172L7.57816 5.25Z" fill="#EA4335"/>
<path d="M3.75 14.9395V17.6691C3.75 18.2658 4.24393 18.7491 4.85375 18.7491H7.55517L7.56161 14.9395H3.75Z" fill="#1967D2"/>
<path d="M7.57172 9.30078H3.75V14.9411H7.56161L7.57172 9.30078Z" fill="#4285F4"/>
<path d="M20.2449 16.7092V7.43929C20.0306 6.20899 18.6813 7.61928 18.6813 7.61928L16.9033 9.05298V15.2098L19.4484 17.2789C20.3672 17.3995 20.2449 16.7092 20.2449 16.7092Z" fill="#34A853"/>
<path d="M13.1006 12.1201L16.903 15.2116V9.05469L13.1006 12.1201Z" fill="#188038"/>
</svg>
