<svg width="75" height="68" viewBox="0 0 75 68" fill="none" xmlns="http://www.w3.org/2000/svg">
<path d="M37.5 34.6875C41.2296 34.6875 44.8065 36.1691 47.4437 38.8063C50.0809 41.4435 51.5625 45.0204 51.5625 48.75V65.625H45.9375V48.75C45.9376 46.5978 45.1153 44.527 43.6389 42.9611C42.1624 41.3953 40.1434 40.4528 37.995 40.3266L37.5 40.3125C35.3478 40.3124 33.277 41.1347 31.7111 42.6111C30.1453 44.0876 29.2028 46.1066 29.0766 48.255L29.0625 48.75V65.625H23.4375V48.75C23.4375 45.0204 24.9191 41.4435 27.5563 38.8063C30.1935 36.1691 33.7704 34.6875 37.5 34.6875ZM19.2188 43.125C20.0034 43.125 20.7656 43.2178 21.4969 43.3894C21.016 44.8209 20.7312 46.3111 20.6503 47.8191L20.625 48.75V48.9919C20.3017 48.8762 19.9654 48.8006 19.6238 48.7669L19.2188 48.75C18.17 48.7501 17.1589 49.1407 16.3826 49.8458C15.6062 50.5509 15.1204 51.5199 15.0197 52.5638L15 52.9688V65.625H9.375V52.9688C9.375 50.358 10.4121 47.8542 12.2582 46.0082C14.1042 44.1621 16.608 43.125 19.2188 43.125V43.125ZM55.7812 43.125C58.392 43.125 60.8958 44.1621 62.7418 46.0082C64.5879 47.8542 65.625 50.358 65.625 52.9688V65.625H60V52.9688C59.9999 51.92 59.6093 50.9089 58.9042 50.1326C58.1991 49.3562 57.2301 48.8704 56.1862 48.7697L55.7812 48.75C55.2891 48.75 54.8166 48.8344 54.375 48.9891V48.75C54.375 46.8769 54.0712 45.0769 53.5059 43.395C54.2344 43.2178 54.9966 43.125 55.7812 43.125ZM19.2188 26.25C21.0836 26.25 22.872 26.9908 24.1906 28.3094C25.5092 29.628 26.25 31.4164 26.25 33.2812C26.25 35.1461 25.5092 36.9345 24.1906 38.2531C22.872 39.5717 21.0836 40.3125 19.2188 40.3125C17.3539 40.3125 15.5655 39.5717 14.2469 38.2531C12.9283 36.9345 12.1875 35.1461 12.1875 33.2812C12.1875 31.4164 12.9283 29.628 14.2469 28.3094C15.5655 26.9908 17.3539 26.25 19.2188 26.25V26.25ZM55.7812 26.25C57.6461 26.25 59.4345 26.9908 60.7531 28.3094C62.0717 29.628 62.8125 31.4164 62.8125 33.2812C62.8125 35.1461 62.0717 36.9345 60.7531 38.2531C59.4345 39.5717 57.6461 40.3125 55.7812 40.3125C53.9164 40.3125 52.128 39.5717 50.8094 38.2531C49.4908 36.9345 48.75 35.1461 48.75 33.2812C48.75 31.4164 49.4908 29.628 50.8094 28.3094C52.128 26.9908 53.9164 26.25 55.7812 26.25V26.25ZM19.2188 31.875C18.8458 31.875 18.4881 32.0232 18.2244 32.2869C17.9607 32.5506 17.8125 32.9083 17.8125 33.2812C17.8125 33.6542 17.9607 34.0119 18.2244 34.2756C18.4881 34.5393 18.8458 34.6875 19.2188 34.6875C19.5917 34.6875 19.9494 34.5393 20.2131 34.2756C20.4768 34.0119 20.625 33.6542 20.625 33.2812C20.625 32.9083 20.4768 32.5506 20.2131 32.2869C19.9494 32.0232 19.5917 31.875 19.2188 31.875ZM55.7812 31.875C55.4083 31.875 55.0506 32.0232 54.7869 32.2869C54.5232 32.5506 54.375 32.9083 54.375 33.2812C54.375 33.6542 54.5232 34.0119 54.7869 34.2756C55.0506 34.5393 55.4083 34.6875 55.7812 34.6875C56.1542 34.6875 56.5119 34.5393 56.7756 34.2756C57.0393 34.0119 57.1875 33.6542 57.1875 33.2812C57.1875 32.9083 57.0393 32.5506 56.7756 32.2869C56.5119 32.0232 56.1542 31.875 55.7812 31.875ZM37.5 9.375C40.4837 9.375 43.3452 10.5603 45.455 12.67C47.5647 14.7798 48.75 17.6413 48.75 20.625C48.75 23.6087 47.5647 26.4702 45.455 28.58C43.3452 30.6897 40.4837 31.875 37.5 31.875C34.5163 31.875 31.6548 30.6897 29.545 28.58C27.4353 26.4702 26.25 23.6087 26.25 20.625C26.25 17.6413 27.4353 14.7798 29.545 12.67C31.6548 10.5603 34.5163 9.375 37.5 9.375V9.375ZM37.5 15C36.0082 15 34.5774 15.5926 33.5225 16.6475C32.4676 17.7024 31.875 19.1332 31.875 20.625C31.875 22.1168 32.4676 23.5476 33.5225 24.6025C34.5774 25.6574 36.0082 26.25 37.5 26.25C38.9918 26.25 40.4226 25.6574 41.4775 24.6025C42.5324 23.5476 43.125 22.1168 43.125 20.625C43.125 19.1332 42.5324 17.7024 41.4775 16.6475C40.4226 15.5926 38.9918 15 37.5 15V15Z" fill="url(#paint0_linear_282_6385)"/>
<defs>
<linearGradient id="paint0_linear_282_6385" x1="37.5" y1="68.3631" x2="37.5" y2="9.375" gradientUnits="userSpaceOnUse">
<stop stop-color="white"/>
<stop offset="1" stop-color="#A1DFE6"/>
</linearGradient>
</defs>
</svg>
