<svg width="50" height="50" viewBox="0 0 50 50" fill="none" xmlns="http://www.w3.org/2000/svg">
<path d="M24.9999 26.0988L32.9555 34.0525L30.3024 36.7056L26.8749 33.2781V43.75H23.1249V33.2744L19.6974 36.7056L17.0443 34.0525L24.9999 26.0988ZM24.9999 6.25C28.2193 6.25015 31.3263 7.43334 33.7303 9.5746C36.1343 11.7159 37.6676 14.6659 38.0387 17.8638C40.3717 18.5 42.4069 19.9358 43.7887 21.9204C45.1704 23.9049 45.8108 26.3119 45.598 28.7207C45.3851 31.1295 44.3325 33.3869 42.6241 35.0984C40.9157 36.8099 38.6602 37.8665 36.2518 38.0838V34.3075C37.1146 34.1843 37.9443 33.8904 38.6923 33.4431C39.4403 32.9957 40.0917 32.4039 40.6085 31.702C41.1253 31.0002 41.4971 30.2024 41.7022 29.3553C41.9073 28.5082 41.9416 27.6288 41.8031 26.7683C41.6647 25.9077 41.3562 25.0834 40.8956 24.3435C40.4351 23.6035 39.8318 22.9627 39.1209 22.4584C38.4101 21.9541 37.6058 21.5965 36.7553 21.4064C35.9047 21.2163 35.0247 21.1976 34.1668 21.3512C34.4604 19.9842 34.4446 18.5687 34.1203 17.2085C33.7961 15.8484 33.1717 14.578 32.2929 13.4904C31.4141 12.4028 30.3032 11.5255 29.0414 10.9229C27.7797 10.3202 26.3991 10.0074 25.0009 10.0074C23.6026 10.0074 22.222 10.3202 20.9603 10.9229C19.6986 11.5255 18.5876 12.4028 17.7088 13.4904C16.83 14.578 16.2056 15.8484 15.8814 17.2085C15.5572 18.5687 15.5413 19.9842 15.8349 21.3512C14.1243 21.03 12.3561 21.4015 10.9193 22.3839C9.48255 23.3664 8.49492 24.8794 8.17367 26.59C7.85243 28.3006 8.2239 30.0688 9.20635 31.5056C10.1888 32.9424 11.7018 33.93 13.4124 34.2512L13.7499 34.3075V38.0838C11.3414 37.8669 9.08568 36.8104 7.37705 35.0991C5.66841 33.3878 4.61554 31.1304 4.40244 28.7215C4.18934 26.3127 4.82957 23.9055 6.21124 21.9208C7.59291 19.9361 9.62812 18.5001 11.9612 17.8638C12.3319 14.6657 13.8651 11.7155 16.2691 9.57412C18.6732 7.43279 21.7805 6.24974 24.9999 6.25Z" fill="#042BFD"/>
</svg>
