<svg width="75" height="65" viewBox="0 0 75 65" fill="none" xmlns="http://www.w3.org/2000/svg">
<path d="M15 65.625C15 59.6576 17.3705 53.9347 21.5901 49.7151C25.8097 45.4955 31.5326 43.125 37.5 43.125C43.4674 43.125 49.1903 45.4955 53.4099 49.7151C57.6295 53.9347 60 59.6576 60 65.625H15ZM40.3125 48.9834V60H53.4159C52.4105 57.1633 50.6659 54.6466 48.3623 52.7099C46.0587 50.7731 43.2797 49.4867 40.3125 48.9834V48.9834ZM34.6875 60V48.9834C31.7203 49.4867 28.9413 50.7731 26.6377 52.7099C24.3341 54.6466 22.5895 57.1633 21.5841 60H34.6875ZM37.5 40.3125C28.1766 40.3125 20.625 32.7609 20.625 23.4375C20.625 14.1141 28.1766 6.5625 37.5 6.5625C46.8234 6.5625 54.375 14.1141 54.375 23.4375C54.375 32.7609 46.8234 40.3125 37.5 40.3125ZM37.5 34.6875C43.7156 34.6875 48.75 29.6531 48.75 23.4375C48.75 17.2219 43.7156 12.1875 37.5 12.1875C31.2844 12.1875 26.25 17.2219 26.25 23.4375C26.25 29.6531 31.2844 34.6875 37.5 34.6875Z" fill="url(#paint0_linear_282_6364)"/>
<defs>
<linearGradient id="paint0_linear_282_6364" x1="37.5" y1="68.5" x2="37.5" y2="6.5625" gradientUnits="userSpaceOnUse">
<stop stop-color="white"/>
<stop offset="1" stop-color="#F2D6AA"/>
</linearGradient>
</defs>
</svg>
