<svg width="75" height="75" viewBox="0 0 75 75" fill="none" xmlns="http://www.w3.org/2000/svg">
<path d="M43.125 32.5781L51.5625 26.25V43.125L43.125 36.7969V43.125H23.4375V26.25H43.125V32.5781ZM19.9584 51.5625H60V17.8125H15V55.4578L19.9584 51.5625ZM21.9047 57.1875L9.375 67.0312V15C9.375 14.2541 9.67132 13.5387 10.1988 13.0113C10.7262 12.4838 11.4416 12.1875 12.1875 12.1875H62.8125C63.5584 12.1875 64.2738 12.4838 64.8012 13.0113C65.3287 13.5387 65.625 14.2541 65.625 15V54.375C65.625 55.1209 65.3287 55.8363 64.8012 56.3637C64.2738 56.8912 63.5584 57.1875 62.8125 57.1875H21.9047Z" fill="url(#paint0_linear_282_6327)"/>
<defs>
<linearGradient id="paint0_linear_282_6327" x1="37.5" y1="12.1875" x2="38.0769" y2="70.9615" gradientUnits="userSpaceOnUse">
<stop stop-color="#B6A5F2"/>
<stop offset="0.868351" stop-color="white"/>
</linearGradient>
</defs>
</svg>
