<svg width="20" height="20" viewBox="0 0 20 20" fill="none" xmlns="http://www.w3.org/2000/svg">
<path d="M8.55664 17.5C8.70293 17.7533 8.91332 17.9637 9.16668 18.11C9.42003 18.2563 9.70743 18.3333 9.99997 18.3333C10.2925 18.3333 10.5799 18.2563 10.8333 18.11C11.0866 17.9637 11.297 17.7533 11.4433 17.5" stroke="#272727" stroke-width="1.04167" stroke-linecap="round" stroke-linejoin="round"/>
<path d="M2.71772 12.7715C2.60886 12.8908 2.53702 13.0392 2.51094 13.1986C2.48486 13.358 2.50566 13.5215 2.57081 13.6693C2.63597 13.8171 2.74267 13.9428 2.87794 14.0311C3.0132 14.1193 3.17121 14.1664 3.33272 14.1665H16.6661C16.8276 14.1666 16.9856 14.1197 17.1209 14.0316C17.2563 13.9435 17.3631 13.818 17.4285 13.6703C17.4938 13.5226 17.5148 13.3591 17.4889 13.1997C17.4631 13.0402 17.3914 12.8918 17.2827 12.7723C16.1744 11.6298 14.9994 10.4157 14.9994 6.6665C14.9994 5.34042 14.4726 4.06865 13.5349 3.13097C12.5972 2.19329 11.3255 1.6665 9.99939 1.6665C8.67331 1.6665 7.40154 2.19329 6.46386 3.13097C5.52618 4.06865 4.99939 5.34042 4.99939 6.6665C4.99939 10.4157 3.82356 11.6298 2.71772 12.7715Z" stroke="#272727" stroke-width="1.04167" stroke-linecap="round" stroke-linejoin="round"/>
</svg>
