<svg width="20" height="20" viewBox="0 0 20 20" fill="none" xmlns="http://www.w3.org/2000/svg">
<path d="M17.5007 5.83317H15.0007C14.5586 5.83317 14.1347 5.65758 13.8221 5.34502C13.5096 5.03245 13.334 4.60853 13.334 4.1665V1.6665" stroke="#404040" stroke-width="1.25" stroke-linecap="round" stroke-linejoin="round"/>
<path d="M17.4993 4.99984V10.4165C17.4993 11.0832 16.916 11.6665 16.2493 11.6665H10.416C9.74935 11.6665 9.16602 11.0832 9.16602 10.4165V2.9165C9.16602 2.24984 9.74935 1.6665 10.416 1.6665H14.166L17.4993 4.99984Z" stroke="#404040" stroke-width="1.25" stroke-linecap="round" stroke-linejoin="round"/>
<path d="M5.83398 6.6665V13.9998C5.83398 14.2498 6.00065 14.4998 6.16732 14.6665C6.33398 14.8332 6.58398 14.9998 6.83398 14.9998H12.5007" stroke="#404040" stroke-width="1.25" stroke-linecap="round" stroke-linejoin="round"/>
<path d="M2.5 10V17.3333C2.5 17.5833 2.66667 17.8333 2.83333 18C3 18.1667 3.25 18.3333 3.5 18.3333H9.16667" stroke="#404040" stroke-width="1.25" stroke-linecap="round" stroke-linejoin="round"/>
</svg>
