<svg width="16" height="16" viewBox="0 0 16 16" fill="none" xmlns="http://www.w3.org/2000/svg">
<g clip-path="url(#clip0_749_5658)">
<path d="M14.6673 8.00016H13.014C12.7226 7.99954 12.4391 8.09437 12.2067 8.27014C11.9744 8.44592 11.806 8.69296 11.7273 8.9735L10.1607 14.5468C10.1506 14.5814 10.1295 14.6119 10.1007 14.6335C10.0718 14.6551 10.0367 14.6668 10.0007 14.6668C9.96459 14.6668 9.9295 14.6551 9.90065 14.6335C9.8718 14.6119 9.85075 14.5814 9.84065 14.5468L6.16065 1.4535C6.15055 1.41888 6.1295 1.38847 6.10065 1.36683C6.0718 1.34519 6.03671 1.3335 6.00065 1.3335C5.96459 1.3335 5.9295 1.34519 5.90065 1.36683C5.8718 1.38847 5.85075 1.41888 5.84065 1.4535L4.27398 7.02683C4.19563 7.30627 4.02824 7.55251 3.79723 7.72817C3.56622 7.90384 3.2842 7.99933 2.99398 8.00016H1.33398" stroke="#717182" stroke-width="1.33333" stroke-linecap="round" stroke-linejoin="round"/>
</g>
<defs>
<clipPath id="clip0_749_5658">
<rect width="16" height="16" fill="white"/>
</clipPath>
</defs>
</svg>
