<svg width="20" height="20" viewBox="0 0 20 20" fill="none" xmlns="http://www.w3.org/2000/svg">
<path d="M13.334 10.8334L17.6865 13.7351C17.7492 13.7768 17.8221 13.8008 17.8974 13.8044C17.9727 13.808 18.0475 13.7911 18.114 13.7555C18.1804 13.7199 18.236 13.667 18.2747 13.6024C18.3135 13.5377 18.3339 13.4638 18.334 13.3884V6.55839C18.334 6.48508 18.3147 6.41306 18.278 6.3496C18.2413 6.28614 18.1884 6.23349 18.1249 6.19697C18.0613 6.16045 17.9892 6.14136 17.9159 6.1416C17.8426 6.14185 17.7706 6.16144 17.7073 6.19839L13.334 8.75006" stroke="#404040" stroke-width="1.25" stroke-linecap="round" stroke-linejoin="round"/>
<path d="M11.666 5H3.33268C2.41221 5 1.66602 5.74619 1.66602 6.66667V13.3333C1.66602 14.2538 2.41221 15 3.33268 15H11.666C12.5865 15 13.3327 14.2538 13.3327 13.3333V6.66667C13.3327 5.74619 12.5865 5 11.666 5Z" stroke="#404040" stroke-width="1.25" stroke-linecap="round" stroke-linejoin="round"/>
</svg>
