<svg width="16" height="16" viewBox="0 0 16 16" fill="none" xmlns="http://www.w3.org/2000/svg">
<path d="M14.4876 12L9.15426 2.66665C9.03797 2.46146 8.86933 2.29078 8.66555 2.17203C8.46176 2.05329 8.23012 1.99072 7.99426 1.99072C7.7584 1.99072 7.52677 2.05329 7.32298 2.17203C7.11919 2.29078 6.95055 2.46146 6.83426 2.66665L1.50093 12C1.38338 12.2036 1.32175 12.4346 1.32227 12.6697C1.32279 12.9047 1.38545 13.1355 1.50389 13.3385C1.62234 13.5416 1.79236 13.7097 1.99673 13.8259C2.20109 13.942 2.43253 14.0021 2.6676 14H13.3343C13.5682 13.9997 13.7979 13.938 14.0005 13.8208C14.203 13.7037 14.3711 13.5354 14.4879 13.3327C14.6048 13.1301 14.6663 12.9002 14.6662 12.6663C14.6662 12.4324 14.6046 12.2026 14.4876 12Z" stroke="#FE9A00" stroke-width="1.33333" stroke-linecap="round" stroke-linejoin="round"/>
<path d="M8 6V8.66667" stroke="#FE9A00" stroke-width="1.33333" stroke-linecap="round" stroke-linejoin="round"/>
<path d="M8 11.3335H8.00667" stroke="#FE9A00" stroke-width="1.33333" stroke-linecap="round" stroke-linejoin="round"/>
</svg>
