<svg width="20" height="20" viewBox="0 0 20 20" fill="none" xmlns="http://www.w3.org/2000/svg">
<path d="M1.66699 18.3333C1.66699 14.6513 4.65176 11.6666 8.33366 11.6666C12.0156 11.6666 15.0003 14.6513 15.0003 18.3333H13.3337C13.3337 15.5718 11.0951 13.3333 8.33366 13.3333C5.57223 13.3333 3.33366 15.5718 3.33366 18.3333H1.66699ZM8.33366 10.8333C5.57116 10.8333 3.33366 8.59575 3.33366 5.83325C3.33366 3.07075 5.57116 0.833252 8.33366 0.833252C11.0962 0.833252 13.3337 3.07075 13.3337 5.83325C13.3337 8.59575 11.0962 10.8333 8.33366 10.8333ZM8.33366 9.16658C10.1753 9.16658 11.667 7.67492 11.667 5.83325C11.667 3.99159 10.1753 2.49992 8.33366 2.49992C6.49199 2.49992 5.00033 3.99159 5.00033 5.83325C5.00033 7.67492 6.49199 9.16658 8.33366 9.16658ZM15.2367 12.2523C17.554 13.2967 19.167 15.6266 19.167 18.3333H17.5003C17.5003 16.3033 16.2906 14.5558 14.5527 13.7725L15.2367 12.2523ZM14.6638 2.84426C16.329 3.53078 17.5003 5.16959 17.5003 7.08325C17.5003 9.47509 15.6705 11.4376 13.3337 11.6479V9.97042C14.7476 9.76842 15.8337 8.55325 15.8337 7.08325C15.8337 5.93271 15.1683 4.93828 14.2012 4.46354L14.6638 2.84426Z" fill="white"/>
</svg>
