<svg width="20" height="20" viewBox="0 0 20 20" fill="none" xmlns="http://www.w3.org/2000/svg">
<path d="M5.62467 2.08325C7.58068 2.08325 9.16634 3.66891 9.16634 5.62492V9.16658H5.62467C3.66867 9.16658 2.08301 7.58093 2.08301 5.62492C2.08301 3.66891 3.66867 2.08325 5.62467 2.08325ZM5.62467 10.8333H9.16634V14.3749C9.16634 16.3309 7.58068 17.9166 5.62467 17.9166C3.66867 17.9166 2.08301 16.3309 2.08301 14.3749C2.08301 12.4189 3.66867 10.8333 5.62467 10.8333ZM14.3747 2.08325C16.3307 2.08325 17.9163 3.66891 17.9163 5.62492C17.9163 7.58093 16.3307 9.16658 14.3747 9.16658H10.833V5.62492C10.833 3.66891 12.4187 2.08325 14.3747 2.08325ZM10.833 10.8333H14.3747C16.3307 10.8333 17.9163 12.4189 17.9163 14.3749C17.9163 16.3309 16.3307 17.9166 14.3747 17.9166C12.4187 17.9166 10.833 16.3309 10.833 14.3749V10.8333Z" fill="white"/>
</svg>
