<svg width="20" height="20" viewBox="0 0 20 20" fill="none" xmlns="http://www.w3.org/2000/svg">
<path d="M12.5 3.33341H4.16667V16.6667H15.8333V6.66675H12.5V3.33341ZM2.5 2.49325C2.5 2.03679 2.87291 1.66675 3.33208 1.66675H13.3333L17.4998 5.83341L17.5 17.4938C17.5 17.9575 17.1292 18.3334 16.6722 18.3334H3.32783C2.87063 18.3334 2.5 17.954 2.5 17.5069V2.49325ZM11.2742 12.0387C9.99592 12.7937 8.32194 12.6221 7.22366 11.5237C5.92192 10.222 5.92192 8.11147 7.22366 6.80972C8.52542 5.50798 10.6359 5.50798 11.9377 6.80972C13.036 7.90801 13.2077 9.582 12.4527 10.8602L14.2947 12.7022L13.1163 13.8808L11.2742 12.0387ZM10.7592 10.3452C11.4101 9.69441 11.4101 8.63908 10.7592 7.98824C10.1083 7.33736 9.05308 7.33736 8.40217 7.98824C7.7513 8.63908 7.7513 9.69441 8.40217 10.3452C9.05308 10.9962 10.1083 10.9962 10.7592 10.3452Z" fill="white"/>
</svg>
