<svg width="18" height="18" viewBox="0 0 18 18" fill="none" xmlns="http://www.w3.org/2000/svg">
<path d="M16.0641 8.19128C16.1984 8.13205 16.3123 8.03473 16.3918 7.91138C16.4713 7.78803 16.5129 7.64407 16.5114 7.49733C16.5098 7.35059 16.4653 7.20752 16.3833 7.08584C16.3012 6.96416 16.1853 6.86922 16.0499 6.81278L9.62162 3.88478C9.42619 3.79564 9.21391 3.74951 8.99912 3.74951C8.78432 3.74951 8.57204 3.79564 8.37662 3.88478L1.94912 6.80978C1.81559 6.86826 1.702 6.96438 1.62224 7.08639C1.54248 7.2084 1.5 7.35101 1.5 7.49678C1.5 7.64255 1.54248 7.78516 1.62224 7.90717C1.702 8.02918 1.81559 8.1253 1.94912 8.18378L8.37662 11.1148C8.57204 11.2039 8.78432 11.25 8.99912 11.25C9.21391 11.25 9.42619 11.2039 9.62162 11.1148L16.0641 8.19128Z" stroke="#6366F1" stroke-width="1.5" stroke-linecap="round" stroke-linejoin="round"/>
<path d="M16.5 7.5V12" stroke="#6366F1" stroke-width="1.5" stroke-linecap="round" stroke-linejoin="round"/>
<path d="M4.5 9.375V12C4.5 12.5967 4.97411 13.169 5.81802 13.591C6.66193 14.0129 7.80653 14.25 9 14.25C10.1935 14.25 11.3381 14.0129 12.182 13.591C13.0259 13.169 13.5 12.5967 13.5 12V9.375" stroke="#6366F1" stroke-width="1.5" stroke-linecap="round" stroke-linejoin="round"/>
</svg>
