<svg width="75" height="65" viewBox="0 0 75 65" fill="none" xmlns="http://www.w3.org/2000/svg">
<path d="M62.8126 22.7541L57.1876 28.3791V15H31.8751V29.0625H17.8126V60H57.1876V52.2459L62.8126 46.6209V62.835C62.8118 63.5752 62.5173 64.2849 61.9936 64.808C61.4699 65.3311 60.76 65.625 60.0198 65.625H14.9804C14.611 65.6224 14.2458 65.5471 13.9056 65.4034C13.5653 65.2597 13.2567 65.0503 12.9974 64.7873C12.7381 64.5243 12.5331 64.2128 12.3941 63.8706C12.2552 63.5284 12.185 63.1622 12.1876 62.7928V26.25L29.071 9.375H59.9944C61.5469 9.375 62.8126 10.6547 62.8126 12.165V22.7541ZM65.0007 28.5197L68.9776 32.4994L47.1019 54.375L43.1194 54.3694L43.1251 50.3981L65.0007 28.5225V28.5197Z" fill="url(#paint0_linear_1139_17096)"/>
<defs>
<linearGradient id="paint0_linear_1139_17096" x1="42.7588" y1="9.375" x2="42.7588" y2="65.625" gradientUnits="userSpaceOnUse">
<stop stop-color="#91D9BB"/>
<stop offset="0.95343" stop-color="white"/>
</linearGradient>
</defs>
</svg>
