<?xml version="1.0" encoding="UTF-8"?>
<!DOCTYPE svg PUBLIC "-//W3C//DTD SVG 1.1//EN" "http://www.w3.org/Graphics/SVG/1.1/DTD/svg11.dtd">
<!-- Creator: CorelDRAW 2020 (64-Bit) -->
<svg xmlns="http://www.w3.org/2000/svg" xml:space="preserve" width="102.102mm" height="17.018mm" version="1.1" style="shape-rendering:geometricPrecision; text-rendering:geometricPrecision; image-rendering:optimizeQuality; fill-rule:evenodd; clip-rule:evenodd"
viewBox="0 0 8900.87 1483.56"
 xmlns:xlink="http://www.w3.org/1999/xlink"
 xmlns:xodm="http://www.corel.com/coreldraw/odm/2003">
 <defs>
  <style type="text/css">
   <![CDATA[
    .fil0 {fill:#EF7F1A;fill-rule:nonzero}
    .fil1 {fill:#6574E6;fill-rule:nonzero}
   ]]>
  </style>
 </defs>
 <g id="Layer_x0020_1">
  <metadata id="CorelCorpID_0Corel-Layer"/>
  <g id="_2700988329728">
   <path class="fil0" d="M861.01 622.2l-572.35 -572.35c-106.51,-106.5 -288.68,-31.04 -288.68,119.52 0,757.63 0,387.02 0,1144.8 0,150.66 182.08,226.03 288.68,119.52l572.35 -572.34c65.98,-66.11 65.98,-173.17 0,-239.15z"/>
   <g>
    <path class="fil1" d="M8543.59 384.06c0,-49 9.53,-95.28 28.59,-138.85 19.07,-43.54 44.56,-81.66 76.54,-114.31 31.98,-32.66 69.76,-58.53 113.32,-77.57 43.54,-19.06 89.82,-28.59 138.82,-28.59l0 1071.79c0,48.99 -9.54,95.27 -28.59,138.84 -19.04,43.54 -44.56,81.66 -76.54,114.32 -31.98,32.66 -69.76,58.17 -113.29,76.54 -43.56,18.39 -89.84,27.57 -138.85,27.57l-712.47 0c-49,0 -95.28,-9.18 -138.85,-27.57 -43.53,-18.37 -81.66,-43.88 -114.31,-76.54 -32.66,-32.66 -58.18,-70.79 -76.54,-114.32 -18.39,-43.56 -27.57,-89.84 -27.57,-138.84l0 -1071.79c48.99,0 95.27,9.54 138.81,28.59 43.56,19.04 81.34,44.91 113.32,77.57 31.98,32.66 57.48,70.78 76.54,114.31 19.07,43.56 28.59,89.84 28.59,138.85l0 622.65c0,23.13 4.41,40.82 13.28,53.06 8.82,12.25 18.71,21.11 29.59,26.55 13.62,6.82 28.59,10.21 44.9,10.21l534.88 0c23.13,0 40.14,-4.77 51.05,-14.3 10.88,-9.5 19.74,-19.74 26.52,-30.62 5.47,-13.59 9.53,-28.56 12.25,-44.9l0 -622.65z"/>
    <path class="fil1" d="M1972.48 811.43l0 647.39c-49.17,0 -95.27,-9.55 -138.29,-28.67 -43.02,-19.14 -80.94,-44.74 -113.7,-76.83 -32.79,-32.11 -58.38,-69.99 -76.82,-113.7 -18.44,-43.73 -27.66,-90.16 -27.66,-139.33l0 -288.87 -622.8 -684.25c31.41,-31.41 67.61,-56.33 108.58,-74.77 40.98,-18.44 85.36,-27.66 133.18,-27.66 49.17,0 94.92,9.9 137.24,29.72 42.34,19.79 79.22,46.77 110.63,80.91l311.41 342.15 309.36 -342.15c31.4,-34.14 68.62,-61.12 111.64,-80.91 43.02,-19.82 89.12,-29.72 138.29,-29.72 47.79,0 92.19,9.22 133.15,27.66 40.99,18.44 77.17,43.36 108.6,74.77l-622.8 684.25z"/>
    <g>
     <path class="fil0" d="M3767.69 685.3l-158.21 -158.2c-29.44,-29.45 -79.79,-8.59 -79.79,33.03 0,209.42 0,106.97 0,316.44 0,41.64 50.33,62.47 79.79,33.03l158.21 -158.2c18.24,-18.27 18.24,-47.87 0,-66.11z"/>
     <path class="fil1" d="M3816.92 1100.29c49.17,0 95.6,9.55 139.3,28.7 43.7,19.11 81.95,44.71 114.72,76.82 32.79,32.09 58.39,69.98 76.83,113.7 18.44,43.7 27.66,90.13 27.66,139.3l-1073.5 0c-49.17,0 -95.6,-9.21 -139.33,-27.65 -43.7,-18.44 -81.93,-44.04 -114.72,-76.83 -32.79,-32.79 -58.39,-71.01 -76.83,-114.72 -18.44,-43.73 -27.65,-90.16 -27.65,-139.33l0 -714.99c0,-49.17 9.21,-95.61 27.65,-139.3 18.44,-43.7 44.04,-81.95 76.83,-114.72 32.79,-32.79 71.01,-58.72 114.72,-77.87 43.73,-19.11 90.16,-28.67 139.33,-28.67l1073.5 0c0,49.17 -9.22,95.61 -27.66,139.31 -18.44,43.72 -44.04,81.95 -76.83,114.74 -32.76,32.76 -71.01,58.72 -114.72,77.84 -43.7,19.12 -90.13,28.67 -139.3,28.67l-626.92 0c-23.2,0 -40.62,4.79 -52.24,14.35 -11.59,9.55 -20.13,19.82 -25.6,30.73 -5.47,13.67 -8.87,27.99 -10.23,43.02l0 90.16 348.77 0 0 311.37c-12.25,1.38 -24.71,2.07 -37.38,2.07l-311.39 0 0 133.16c0,23.2 4.43,40.96 13.31,53.26 8.87,12.29 18.78,21.17 29.71,26.64 13.65,6.82 28.67,10.23 45.05,10.23l626.92 0z"/>
    </g>
    <path class="fil1" d="M5750.56 24.74c0,49 -9.18,95.28 -27.57,138.82 -18.36,43.56 -43.88,81.66 -76.54,114.34 -32.66,32.66 -70.43,58.5 -113.32,77.57 -42.86,19.06 -88.8,28.59 -137.79,28.59l-177.61 0 0 1069.73c-49,0 -95.26,-9.53 -138.82,-28.59 -43.56,-19.03 -81.66,-44.9 -114.31,-77.56 -32.68,-32.66 -58.18,-70.79 -76.57,-114.31 -18.36,-43.56 -27.55,-89.84 -27.55,-138.85l0 -710.42 -179.65 0c-49,0 -95.28,-9.54 -138.85,-28.59 -43.54,-19.07 -81.31,-44.91 -113.29,-77.57 -31.98,-32.68 -57.5,-70.78 -76.54,-114.34 -19.06,-43.54 -28.59,-89.82 -28.59,-138.82l1427 0z"/>
    <path class="fil1" d="M6968.43 1096.53c49,0 95.28,9.53 138.85,28.59 43.54,19.06 81.66,44.56 114.31,76.54 32.66,31.98 58.18,69.76 76.54,113.32 18.39,43.53 27.57,89.81 27.57,138.81l-1331.05 0c-27.22,0 -50.02,-9.53 -68.39,-28.59 -18.39,-19.03 -27.57,-42.18 -27.57,-69.41 0,-23.12 7.48,-44.23 22.46,-63.26l794.15 -908.46 -459.34 0c-48.99,0 -95.27,-9.54 -138.84,-28.59 -43.54,-19.07 -81.66,-44.91 -114.31,-77.57 -32.66,-32.68 -58.18,-70.78 -76.55,-114.34 -18.39,-43.54 -27.57,-89.82 -27.57,-138.82l1331.05 0c27.22,0 50.02,9.54 68.38,28.59 18.39,19.04 27.57,42.19 27.57,69.41 0,12.25 -2.05,23.8 -6.11,34.7 -4.1,10.88 -9.53,20.41 -16.35,28.57l-796.2 910.51 461.38 0z"/>
   </g>
  </g>
 </g>
</svg>
